<?xml version="1.0" encoding="UTF-8"?>
<svg width="1935px" height="107px" viewBox="0 0 1935 107" version="1.1" xmlns="http://www.w3.org/2000/svg" xmlns:xlink="http://www.w3.org/1999/xlink">
    <title>样式06</title>
    <defs>
        <linearGradient x1="100%" y1="50%" x2="0%" y2="50%" id="linearGradient-1">
            <stop stop-color="#0091FF" stop-opacity="0" offset="0%"></stop>
            <stop stop-color="#0091FF" stop-opacity="0.05" offset="49.7756546%"></stop>
            <stop stop-color="#0091FF" stop-opacity="0" offset="100%"></stop>
        </linearGradient>
        <linearGradient x1="100%" y1="50%" x2="0%" y2="50%" id="linearGradient-2">
            <stop stop-color="#0093FF" stop-opacity="0" offset="0%"></stop>
            <stop stop-color="#0093FF" offset="50.1134924%"></stop>
            <stop stop-color="#0093FF" stop-opacity="0" offset="100%"></stop>
        </linearGradient>
        <filter x="-6.1%" y="-176.5%" width="112.2%" height="452.9%" filterUnits="objectBoundingBox" id="filter-3">
            <feGaussianBlur stdDeviation="10" in="SourceGraphic"></feGaussianBlur>
        </filter>
        <linearGradient x1="100%" y1="50%" x2="0%" y2="50%" id="linearGradient-4">
            <stop stop-color="#0093FF" stop-opacity="0" offset="0%"></stop>
            <stop stop-color="#0093FF" offset="50.1134924%"></stop>
            <stop stop-color="#0093FF" stop-opacity="0" offset="100%"></stop>
        </linearGradient>
        <filter x="-6.6%" y="-176.5%" width="113.2%" height="452.9%" filterUnits="objectBoundingBox" id="filter-5">
            <feGaussianBlur stdDeviation="10" in="SourceGraphic"></feGaussianBlur>
        </filter>
        <linearGradient x1="100%" y1="50%" x2="0%" y2="50%" id="linearGradient-6">
            <stop stop-color="#0093FF" stop-opacity="0" offset="0%"></stop>
            <stop stop-color="#0093FF" offset="50.1134924%"></stop>
            <stop stop-color="#0093FF" stop-opacity="0" offset="100%"></stop>
        </linearGradient>
        <filter x="-6.0%" y="-176.5%" width="111.9%" height="452.9%" filterUnits="objectBoundingBox" id="filter-7">
            <feGaussianBlur stdDeviation="10" in="SourceGraphic"></feGaussianBlur>
        </filter>
        <linearGradient x1="100%" y1="50%" x2="0%" y2="50%" id="linearGradient-8">
            <stop stop-color="#0091FF" stop-opacity="0" offset="0%"></stop>
            <stop stop-color="#0091FF" stop-opacity="0.918729821" offset="8.02371398%"></stop>
            <stop stop-color="#0091FF" stop-opacity="0" offset="49.3316993%"></stop>
            <stop stop-color="#0091FF" offset="92.4872607%"></stop>
            <stop stop-color="#0091FF" stop-opacity="0" offset="100%"></stop>
        </linearGradient>
        <linearGradient x1="50%" y1="0%" x2="50%" y2="100%" id="linearGradient-9">
            <stop stop-color="#000000" stop-opacity="0" offset="0%"></stop>
            <stop stop-color="#000000" stop-opacity="0.4" offset="50.1372466%"></stop>
            <stop stop-color="#000000" stop-opacity="0" offset="100%"></stop>
        </linearGradient>
        <linearGradient x1="50%" y1="0%" x2="50%" y2="100%" id="linearGradient-10">
            <stop stop-color="#000000" stop-opacity="0" offset="0%"></stop>
            <stop stop-color="#000000" stop-opacity="0.4" offset="48.9468961%"></stop>
            <stop stop-color="#000000" stop-opacity="0" offset="100%"></stop>
        </linearGradient>
        <linearGradient x1="100%" y1="50%" x2="0%" y2="50%" id="linearGradient-11">
            <stop stop-color="#0090FF" offset="0%"></stop>
            <stop stop-color="#0090FF" stop-opacity="0" offset="100%"></stop>
        </linearGradient>
        <filter x="-1.7%" y="-300.0%" width="103.5%" height="700.0%" filterUnits="objectBoundingBox" id="filter-12">
            <feGaussianBlur stdDeviation="3" in="SourceGraphic"></feGaussianBlur>
        </filter>
        <linearGradient x1="100%" y1="50%" x2="0%" y2="50%" id="linearGradient-13">
            <stop stop-color="#0093FF" stop-opacity="0" offset="0%"></stop>
            <stop stop-color="#0093FF" offset="50.1082137%"></stop>
            <stop stop-color="#0093FF" stop-opacity="0" offset="100%"></stop>
        </linearGradient>
        <linearGradient x1="50%" y1="100%" x2="50%" y2="0%" id="linearGradient-14">
            <stop stop-color="#00EDFF" stop-opacity="0" offset="0%"></stop>
            <stop stop-color="#00EDFF" stop-opacity="0.012" offset="1%"></stop>
            <stop stop-color="#00A2FF" stop-opacity="0.302" offset="100%"></stop>
        </linearGradient>
        <radialGradient cx="50%" cy="100%" fx="50%" fy="100%" r="92.9341489%" gradientTransform="translate(0.500000,1.000000),scale(0.122642,1.000000),rotate(-90.000000),scale(1.000000,3.756107),translate(-0.500000,-1.000000)" id="radialGradient-15">
            <stop stop-color="#009AFF" offset="0%"></stop>
            <stop stop-color="#00A2FF" stop-opacity="0" offset="100%"></stop>
        </radialGradient>
        <linearGradient x1="1.8%" y1="49.9073976%" x2="109.8%" y2="50%" id="linearGradient-16">
            <stop stop-color="#00A2FF" stop-opacity="0.302" offset="0%"></stop>
            <stop stop-color="#005180" stop-opacity="0" offset="100%"></stop>
        </linearGradient>
        <linearGradient x1="98.2%" y1="49.9073976%" x2="-9.8%" y2="49.8849843%" id="linearGradient-17">
            <stop stop-color="#00A2FF" stop-opacity="0.302" offset="0%"></stop>
            <stop stop-color="#005180" stop-opacity="0" offset="100%"></stop>
        </linearGradient>
    </defs>
    <g id="页面-1" stroke="none" stroke-width="1" fill="none" fill-rule="evenodd">
        <g id="大标题框-2" transform="translate(13.000000, -386.000000)">
            <g id="样式06" transform="translate(-1.000000, 386.000000)">
                <polygon id="Rectangle" fill="url(#linearGradient-1)" points="18 2 1899 2 1899 68 1184.49471 68 1175.89327 77.295 1168.99652 77.295 1161.33691 69.7066667 758.42455 69.7066667 749.999255 78.047619 743.693705 77.6650952 735.572397 69.0711251 18 68"></polygon>
                <g id="Rectangle" transform="translate(18.000000, 2.000000)">
                    <ellipse id="Oval" fill="url(#linearGradient-2)" filter="url(#filter-3)" cx="246.5" cy="66.5" rx="246.5" ry="8.5"></ellipse>
                    <ellipse id="Oval备份-3" fill="url(#linearGradient-4)" filter="url(#filter-5)" cx="949.5" cy="66.5" rx="227.5" ry="8.5"></ellipse>
                    <ellipse id="Oval备份-4" fill="url(#linearGradient-6)" filter="url(#filter-7)" cx="1590.5" cy="66.5" rx="251.5" ry="8.5"></ellipse>
                </g>
                <rect id="Rectangle" fill="url(#linearGradient-8)" x="18" y="0" width="1860" height="2"></rect>
                <g id="Group" transform="translate(0.000000, 0.953194)" fill="url(#linearGradient-9)">
                    <polygon id="Rectangle" transform="translate(25.049310, 41.000000) rotate(-330.000000) translate(-25.049310, -41.000000) " points="24.1818306 -5.78783558 25.168034 -5.77987009 25.9167897 87.7878356 24.9305864 87.7798701"></polygon>
                    <polygon id="Rectangle-Copy-2" transform="translate(42.718191, 41.000000) rotate(-330.000000) translate(-42.718191, -41.000000) " points="41.8507116 -5.78783558 42.8369149 -5.77987009 43.5856707 87.7878356 42.5994673 87.7798701"></polygon>
                    <polygon id="Rectangle-Copy-3" transform="translate(60.387072, 41.000000) rotate(-330.000000) translate(-60.387072, -41.000000) " points="59.5195925 -5.78783558 60.5057959 -5.77987009 61.2545516 87.7878356 60.2683482 87.7798701"></polygon>
                    <polygon id="Rectangle-Copy-4" transform="translate(78.055953, 41.000000) rotate(-330.000000) translate(-78.055953, -41.000000) " points="77.1884734 -5.78783558 78.1746768 -5.77987009 78.9234325 87.7878356 77.9372292 87.7798701"></polygon>
                    <polygon id="Rectangle-Copy-5" transform="translate(95.724834, 41.000000) rotate(-330.000000) translate(-95.724834, -41.000000) " points="94.8573544 -5.78783558 95.8435577 -5.77987009 96.5923135 87.7878356 95.6061101 87.7798701"></polygon>
                    <polygon id="Rectangle-Copy-6" transform="translate(113.393715, 41.000000) rotate(-330.000000) translate(-113.393715, -41.000000) " points="112.526235 -5.78783558 113.512439 -5.77987009 114.261194 87.7878356 113.274991 87.7798701"></polygon>
                    <polygon id="Rectangle-Copy-7" transform="translate(131.062596, 41.000000) rotate(-330.000000) translate(-131.062596, -41.000000) " points="130.195116 -5.78783558 131.18132 -5.77987009 131.930075 87.7878356 130.943872 87.7798701"></polygon>
                    <polygon id="Rectangle-Copy-8" transform="translate(148.731477, 41.000000) rotate(-330.000000) translate(-148.731477, -41.000000) " points="147.863997 -5.78783558 148.850201 -5.77987009 149.598956 87.7878356 148.612753 87.7798701"></polygon>
                    <polygon id="Rectangle-Copy-9" transform="translate(166.400358, 41.000000) rotate(-330.000000) translate(-166.400358, -41.000000) " points="165.532878 -5.78783558 166.519082 -5.77987009 167.267837 87.7878356 166.281634 87.7798701"></polygon>
                    <polygon id="Rectangle-Copy-10" transform="translate(184.069239, 41.000000) rotate(-330.000000) translate(-184.069239, -41.000000) " points="183.201759 -5.78783558 184.187962 -5.77987009 184.936718 87.7878356 183.950515 87.7798701"></polygon>
                    <polygon id="Rectangle-Copy-11" transform="translate(201.738120, 41.000000) rotate(-330.000000) translate(-201.738120, -41.000000) " points="200.87064 -5.78783558 201.856843 -5.77987009 202.605599 87.7878356 201.619396 87.7798701"></polygon>
                    <polygon id="Rectangle-Copy-12" transform="translate(219.407001, 41.000000) rotate(-330.000000) translate(-219.407001, -41.000000) " points="218.539521 -5.78783558 219.525724 -5.77987009 220.27448 87.7878356 219.288277 87.7798701"></polygon>
                    <polygon id="Rectangle-Copy-13" transform="translate(237.075881, 41.000000) rotate(-330.000000) translate(-237.075881, -41.000000) " points="236.208402 -5.78783558 237.194605 -5.77987009 237.943361 87.7878356 236.957158 87.7798701"></polygon>
                    <polygon id="Rectangle-Copy-14" transform="translate(254.744762, 41.000000) rotate(-330.000000) translate(-254.744762, -41.000000) " points="253.877283 -5.78783558 254.863486 -5.77987009 255.612242 87.7878356 254.626039 87.7798701"></polygon>
                    <polygon id="Rectangle-Copy-15" transform="translate(272.413643, 41.000000) rotate(-330.000000) translate(-272.413643, -41.000000) " points="271.546164 -5.78783558 272.532367 -5.77987009 273.281123 87.7878356 272.29492 87.7798701"></polygon>
                    <polygon id="Rectangle-Copy-16" transform="translate(290.082524, 41.000000) rotate(-330.000000) translate(-290.082524, -41.000000) " points="289.215045 -5.78783558 290.201248 -5.77987009 290.950004 87.7878356 289.9638 87.7798701"></polygon>
                    <polygon id="Rectangle-Copy-17" transform="translate(307.751405, 41.000000) rotate(-330.000000) translate(-307.751405, -41.000000) " points="306.883926 -5.78783558 307.870129 -5.77987009 308.618885 87.7878356 307.632681 87.7798701"></polygon>
                    <polygon id="Rectangle-Copy-18" transform="translate(325.420286, 41.000000) rotate(-330.000000) translate(-325.420286, -41.000000) " points="324.552807 -5.78783558 325.53901 -5.77987009 326.287766 87.7878356 325.301562 87.7798701"></polygon>
                    <polygon id="Rectangle-Copy-19" transform="translate(343.089167, 41.000000) rotate(-330.000000) translate(-343.089167, -41.000000) " points="342.221688 -5.78783558 343.207891 -5.77987009 343.956647 87.7878356 342.970443 87.7798701"></polygon>
                    <polygon id="Rectangle-Copy-20" transform="translate(360.758048, 41.000000) rotate(-330.000000) translate(-360.758048, -41.000000) " points="359.890568 -5.78783558 360.876772 -5.77987009 361.625528 87.7878356 360.639324 87.7798701"></polygon>
                    <polygon id="Rectangle-Copy-21" transform="translate(378.426929, 41.000000) rotate(-330.000000) translate(-378.426929, -41.000000) " points="377.559449 -5.78783558 378.545653 -5.77987009 379.294409 87.7878356 378.308205 87.7798701"></polygon>
                    <polygon id="Rectangle-Copy-22" transform="translate(396.095810, 41.000000) rotate(-330.000000) translate(-396.095810, -41.000000) " points="395.22833 -5.78783558 396.214534 -5.77987009 396.963289 87.7878356 395.977086 87.7798701"></polygon>
                    <polygon id="Rectangle-Copy-23" transform="translate(413.764691, 41.000000) rotate(-330.000000) translate(-413.764691, -41.000000) " points="412.897211 -5.78783558 413.883415 -5.77987009 414.63217 87.7878356 413.645967 87.7798701"></polygon>
                    <polygon id="Rectangle-Copy-24" transform="translate(431.433572, 41.000000) rotate(-330.000000) translate(-431.433572, -41.000000) " points="430.566092 -5.78783558 431.552296 -5.77987009 432.301051 87.7878356 431.314848 87.7798701"></polygon>
                    <polygon id="Rectangle-Copy-25" transform="translate(449.102453, 41.000000) rotate(-330.000000) translate(-449.102453, -41.000000) " points="448.234973 -5.78783558 449.221177 -5.77987009 449.969932 87.7878356 448.983729 87.7798701"></polygon>
                    <polygon id="Rectangle-Copy-26" transform="translate(466.771334, 41.000000) rotate(-330.000000) translate(-466.771334, -41.000000) " points="465.903854 -5.78783558 466.890057 -5.77987009 467.638813 87.7878356 466.65261 87.7798701"></polygon>
                    <polygon id="Rectangle-Copy-27" transform="translate(484.440215, 41.000000) rotate(-330.000000) translate(-484.440215, -41.000000) " points="483.572735 -5.78783558 484.558938 -5.77987009 485.307694 87.7878356 484.321491 87.7798701"></polygon>
                    <polygon id="Rectangle-Copy-28" transform="translate(502.109096, 41.000000) rotate(-330.000000) translate(-502.109096, -41.000000) " points="501.241616 -5.78783558 502.227819 -5.77987009 502.976575 87.7878356 501.990372 87.7798701"></polygon>
                    <polygon id="Rectangle-Copy-29" transform="translate(519.777976, 41.000000) rotate(-330.000000) translate(-519.777976, -41.000000) " points="518.910497 -5.78783558 519.8967 -5.77987009 520.645456 87.7878356 519.659253 87.7798701"></polygon>
                    <polygon id="Rectangle-Copy-30" transform="translate(537.446857, 41.000000) rotate(-330.000000) translate(-537.446857, -41.000000) " points="536.579378 -5.78783558 537.565581 -5.77987009 538.314337 87.7878356 537.328134 87.7798701"></polygon>
                    <polygon id="Rectangle-Copy-31" transform="translate(555.115738, 41.000000) rotate(-330.000000) translate(-555.115738, -41.000000) " points="554.248259 -5.78783558 555.234462 -5.77987009 555.983218 87.7878356 554.997015 87.7798701"></polygon>
                    <polygon id="Rectangle-Copy-32" transform="translate(572.784619, 41.000000) rotate(-330.000000) translate(-572.784619, -41.000000) " points="571.91714 -5.78783558 572.903343 -5.77987009 573.652099 87.7878356 572.665895 87.7798701"></polygon>
                    <polygon id="Rectangle-Copy-33" transform="translate(590.453500, 41.000000) rotate(-330.000000) translate(-590.453500, -41.000000) " points="589.586021 -5.78783558 590.572224 -5.77987009 591.32098 87.7878356 590.334776 87.7798701"></polygon>
                    <polygon id="Rectangle-Copy-34" transform="translate(608.122381, 41.000000) rotate(-330.000000) translate(-608.122381, -41.000000) " points="607.254902 -5.78783558 608.241105 -5.77987009 608.989861 87.7878356 608.003657 87.7798701"></polygon>
                    <polygon id="Rectangle-Copy-35" transform="translate(625.791262, 41.000000) rotate(-330.000000) translate(-625.791262, -41.000000) " points="624.923783 -5.78783558 625.909986 -5.77987009 626.658742 87.7878356 625.672538 87.7798701"></polygon>
                    <polygon id="Rectangle-Copy-36" transform="translate(643.460143, 41.000000) rotate(-330.000000) translate(-643.460143, -41.000000) " points="642.592664 -5.78783558 643.578867 -5.77987009 644.327623 87.7878356 643.341419 87.7798701"></polygon>
                    <polygon id="Rectangle-Copy-37" transform="translate(661.129024, 41.000000) rotate(-330.000000) translate(-661.129024, -41.000000) " points="660.261544 -5.78783558 661.247748 -5.77987009 661.996504 87.7878356 661.0103 87.7798701"></polygon>
                    <polygon id="Rectangle-Copy-38" transform="translate(678.797905, 41.000000) rotate(-330.000000) translate(-678.797905, -41.000000) " points="677.930425 -5.78783558 678.916629 -5.77987009 679.665385 87.7878356 678.679181 87.7798701"></polygon>
                    <polygon id="Rectangle-Copy-39" transform="translate(696.466786, 41.000000) rotate(-330.000000) translate(-696.466786, -41.000000) " points="695.599306 -5.78783558 696.58551 -5.77987009 697.334265 87.7878356 696.348062 87.7798701"></polygon>
                    <polygon id="Rectangle-Copy-40" transform="translate(714.135667, 41.000000) rotate(-330.000000) translate(-714.135667, -41.000000) " points="713.268187 -5.78783558 714.254391 -5.77987009 715.003146 87.7878356 714.016943 87.7798701"></polygon>
                    <polygon id="Rectangle-Copy-41" transform="translate(731.804548, 41.000000) rotate(-330.000000) translate(-731.804548, -41.000000) " points="730.937068 -5.78783558 731.923272 -5.77987009 732.672027 87.7878356 731.685824 87.7798701"></polygon>
                    <polygon id="Rectangle-Copy-42" transform="translate(749.473429, 41.000000) rotate(-330.000000) translate(-749.473429, -41.000000) " points="748.605949 -5.78783558 749.592153 -5.77987009 750.340908 87.7878356 749.354705 87.7798701"></polygon>
                    <polygon id="Rectangle-Copy-43" transform="translate(767.142310, 41.000000) rotate(-330.000000) translate(-767.142310, -41.000000) " points="766.27483 -5.78783558 767.261033 -5.77987009 768.009789 87.7878356 767.023586 87.7798701"></polygon>
                    <polygon id="Rectangle-Copy-44" transform="translate(784.811191, 41.000000) rotate(-330.000000) translate(-784.811191, -41.000000) " points="783.943711 -5.78783558 784.929914 -5.77987009 785.67867 87.7878356 784.692467 87.7798701"></polygon>
                    <polygon id="Rectangle-Copy-45" transform="translate(802.480072, 41.000000) rotate(-330.000000) translate(-802.480072, -41.000000) " points="801.612592 -5.78783558 802.598795 -5.77987009 803.347551 87.7878356 802.361348 87.7798701"></polygon>
                    <polygon id="Rectangle-Copy-46" transform="translate(820.148952, 41.000000) rotate(-330.000000) translate(-820.148952, -41.000000) " points="819.281473 -5.78783558 820.267676 -5.77987009 821.016432 87.7878356 820.030229 87.7798701"></polygon>
                    <polygon id="Rectangle-Copy-47" transform="translate(837.817833, 41.000000) rotate(-330.000000) translate(-837.817833, -41.000000) " points="836.950354 -5.78783558 837.936557 -5.77987009 838.685313 87.7878356 837.69911 87.7798701"></polygon>
                    <polygon id="Rectangle-Copy-48" transform="translate(855.486714, 41.000000) rotate(-330.000000) translate(-855.486714, -41.000000) " points="854.619235 -5.78783558 855.605438 -5.77987009 856.354194 87.7878356 855.367991 87.7798701"></polygon>
                    <polygon id="Rectangle-Copy-49" transform="translate(873.155595, 41.000000) rotate(-330.000000) translate(-873.155595, -41.000000) " points="872.288116 -5.78783558 873.274319 -5.77987009 874.023075 87.7878356 873.036871 87.7798701"></polygon>
                    <polygon id="Rectangle-Copy-50" transform="translate(890.824476, 41.000000) rotate(-330.000000) translate(-890.824476, -41.000000) " points="889.956997 -5.78783558 890.9432 -5.77987009 891.691956 87.7878356 890.705752 87.7798701"></polygon>
                    <polygon id="Rectangle-Copy-51" transform="translate(908.493357, 41.000000) rotate(-330.000000) translate(-908.493357, -41.000000) " points="907.625878 -5.78783558 908.612081 -5.77987009 909.360837 87.7878356 908.374633 87.7798701"></polygon>
                    <polygon id="Rectangle-Copy-52" transform="translate(926.162238, 41.000000) rotate(-330.000000) translate(-926.162238, -41.000000) " points="925.294759 -5.78783558 926.280962 -5.77987009 927.029718 87.7878356 926.043514 87.7798701"></polygon>
                    <polygon id="Rectangle-Copy-53" transform="translate(943.831119, 41.000000) rotate(-330.000000) translate(-943.831119, -41.000000) " points="942.96364 -5.78783558 943.949843 -5.77987009 944.698599 87.7878356 943.712395 87.7798701"></polygon>
                    <polygon id="Rectangle-Copy-54" transform="translate(961.500000, 41.000000) rotate(-330.000000) translate(-961.500000, -41.000000) " points="960.63252 -5.78783558 961.618724 -5.77987009 962.36748 87.7878356 961.381276 87.7798701"></polygon>
                    <polygon id="Rectangle-Copy-55" transform="translate(979.168881, 41.000000) rotate(-330.000000) translate(-979.168881, -41.000000) " points="978.301401 -5.78783558 979.287605 -5.77987009 980.03636 87.7878356 979.050157 87.7798701"></polygon>
                    <polygon id="Rectangle-Copy-56" transform="translate(996.837762, 41.000000) rotate(-330.000000) translate(-996.837762, -41.000000) " points="995.970282 -5.78783558 996.956486 -5.77987009 997.705241 87.7878356 996.719038 87.7798701"></polygon>
                    <polygon id="Rectangle-Copy-57" transform="translate(1014.506643, 41.000000) rotate(-330.000000) translate(-1014.506643, -41.000000) " points="1013.63916 -5.78783558 1014.62537 -5.77987009 1015.37412 87.7878356 1014.38792 87.7798701"></polygon>
                    <polygon id="Rectangle-Copy-58" transform="translate(1032.175524, 41.000000) rotate(-330.000000) translate(-1032.175524, -41.000000) " points="1031.30804 -5.78783558 1032.29425 -5.77987009 1033.043 87.7878356 1032.0568 87.7798701"></polygon>
                    <polygon id="Rectangle-Copy-59" transform="translate(1049.844405, 41.000000) rotate(-330.000000) translate(-1049.844405, -41.000000) " points="1048.97693 -5.78783558 1049.96313 -5.77987009 1050.71188 87.7878356 1049.72568 87.7798701"></polygon>
                    <polygon id="Rectangle-Copy-60" transform="translate(1067.513286, 41.000000) rotate(-330.000000) translate(-1067.513286, -41.000000) " points="1066.64581 -5.78783558 1067.63201 -5.77987009 1068.38077 87.7878356 1067.39456 87.7798701"></polygon>
                    <polygon id="Rectangle-Copy-61" transform="translate(1085.182167, 41.000000) rotate(-330.000000) translate(-1085.182167, -41.000000) " points="1084.31469 -5.78783558 1085.30089 -5.77987009 1086.04965 87.7878356 1085.06344 87.7798701"></polygon>
                    <polygon id="Rectangle-Copy-62" transform="translate(1102.851048, 41.000000) rotate(-330.000000) translate(-1102.851048, -41.000000) " points="1101.98357 -5.78783558 1102.96977 -5.77987009 1103.71853 87.7878356 1102.73232 87.7798701"></polygon>
                    <polygon id="Rectangle-Copy-63" transform="translate(1120.519928, 41.000000) rotate(-330.000000) translate(-1120.519928, -41.000000) " points="1119.65245 -5.78783558 1120.63865 -5.77987009 1121.38741 87.7878356 1120.4012 87.7798701"></polygon>
                    <polygon id="Rectangle-Copy-64" transform="translate(1138.188809, 41.000000) rotate(-330.000000) translate(-1138.188809, -41.000000) " points="1137.32133 -5.78783558 1138.30753 -5.77987009 1139.05629 87.7878356 1138.07009 87.7798701"></polygon>
                    <polygon id="Rectangle-Copy-65" transform="translate(1155.857690, 41.000000) rotate(-330.000000) translate(-1155.857690, -41.000000) " points="1154.99021 -5.78783558 1155.97641 -5.77987009 1156.72517 87.7878356 1155.73897 87.7798701"></polygon>
                    <polygon id="Rectangle-Copy-66" transform="translate(1173.526571, 41.000000) rotate(-330.000000) translate(-1173.526571, -41.000000) " points="1172.65909 -5.78783558 1173.6453 -5.77987009 1174.39405 87.7878356 1173.40785 87.7798701"></polygon>
                    <polygon id="Rectangle-Copy-67" transform="translate(1191.195452, 41.000000) rotate(-330.000000) translate(-1191.195452, -41.000000) " points="1190.32797 -5.78783558 1191.31418 -5.77987009 1192.06293 87.7878356 1191.07673 87.7798701"></polygon>
                    <polygon id="Rectangle-Copy-68" transform="translate(1208.864333, 41.000000) rotate(-330.000000) translate(-1208.864333, -41.000000) " points="1207.99685 -5.78783558 1208.98306 -5.77987009 1209.73181 87.7878356 1208.74561 87.7798701"></polygon>
                    <polygon id="Rectangle-Copy-69" transform="translate(1226.533214, 41.000000) rotate(-330.000000) translate(-1226.533214, -41.000000) " points="1225.66573 -5.78783558 1226.65194 -5.77987009 1227.40069 87.7878356 1226.41449 87.7798701"></polygon>
                    <polygon id="Rectangle-Copy-70" transform="translate(1244.202095, 41.000000) rotate(-330.000000) translate(-1244.202095, -41.000000) " points="1243.33462 -5.78783558 1244.32082 -5.77987009 1245.06957 87.7878356 1244.08337 87.7798701"></polygon>
                    <polygon id="Rectangle-Copy-71" transform="translate(1261.870976, 41.000000) rotate(-330.000000) translate(-1261.870976, -41.000000) " points="1261.0035 -5.78783558 1261.9897 -5.77987009 1262.73846 87.7878356 1261.75225 87.7798701"></polygon>
                    <polygon id="Rectangle-Copy-72" transform="translate(1279.539857, 41.000000) rotate(-330.000000) translate(-1279.539857, -41.000000) " points="1278.67238 -5.78783558 1279.65858 -5.77987009 1280.40734 87.7878356 1279.42113 87.7798701"></polygon>
                    <polygon id="Rectangle-Copy-73" transform="translate(1297.208738, 41.000000) rotate(-330.000000) translate(-1297.208738, -41.000000) " points="1296.34126 -5.78783558 1297.32746 -5.77987009 1298.07622 87.7878356 1297.09001 87.7798701"></polygon>
                    <polygon id="Rectangle-Copy-74" transform="translate(1314.877619, 41.000000) rotate(-330.000000) translate(-1314.877619, -41.000000) " points="1314.01014 -5.78783558 1314.99634 -5.77987009 1315.7451 87.7878356 1314.75889 87.7798701"></polygon>
                    <polygon id="Rectangle-Copy-75" transform="translate(1332.546500, 41.000000) rotate(-330.000000) translate(-1332.546500, -41.000000) " points="1331.67902 -5.78783558 1332.66522 -5.77987009 1333.41398 87.7878356 1332.42778 87.7798701"></polygon>
                    <polygon id="Rectangle-Copy-76" transform="translate(1350.215381, 41.000000) rotate(-330.000000) translate(-1350.215381, -41.000000) " points="1349.3479 -5.78783558 1350.3341 -5.77987009 1351.08286 87.7878356 1350.09666 87.7798701"></polygon>
                    <polygon id="Rectangle-Copy-77" transform="translate(1367.884262, 41.000000) rotate(-330.000000) translate(-1367.884262, -41.000000) " points="1367.01678 -5.78783558 1368.00299 -5.77987009 1368.75174 87.7878356 1367.76554 87.7798701"></polygon>
                    <polygon id="Rectangle-Copy-78" transform="translate(1385.553143, 41.000000) rotate(-330.000000) translate(-1385.553143, -41.000000) " points="1384.68566 -5.78783558 1385.67187 -5.77987009 1386.42062 87.7878356 1385.43442 87.7798701"></polygon>
                    <polygon id="Rectangle-Copy-79" transform="translate(1403.222024, 41.000000) rotate(-330.000000) translate(-1403.222024, -41.000000) " points="1402.35454 -5.78783558 1403.34075 -5.77987009 1404.0895 87.7878356 1403.1033 87.7798701"></polygon>
                    <polygon id="Rectangle-Copy-80" transform="translate(1420.890904, 41.000000) rotate(-330.000000) translate(-1420.890904, -41.000000) " points="1420.02342 -5.78783558 1421.00963 -5.77987009 1421.75838 87.7878356 1420.77218 87.7798701"></polygon>
                    <polygon id="Rectangle-Copy-81" transform="translate(1438.559785, 41.000000) rotate(-330.000000) translate(-1438.559785, -41.000000) " points="1437.69231 -5.78783558 1438.67851 -5.77987009 1439.42726 87.7878356 1438.44106 87.7798701"></polygon>
                    <polygon id="Rectangle-Copy-82" transform="translate(1456.228666, 41.000000) rotate(-330.000000) translate(-1456.228666, -41.000000) " points="1455.36119 -5.78783558 1456.34739 -5.77987009 1457.09615 87.7878356 1456.10994 87.7798701"></polygon>
                    <polygon id="Rectangle-Copy-83" transform="translate(1473.897547, 41.000000) rotate(-330.000000) translate(-1473.897547, -41.000000) " points="1473.03007 -5.78783558 1474.01627 -5.77987009 1474.76503 87.7878356 1473.77882 87.7798701"></polygon>
                    <polygon id="Rectangle-Copy-84" transform="translate(1491.566428, 41.000000) rotate(-330.000000) translate(-1491.566428, -41.000000) " points="1490.69895 -5.78783558 1491.68515 -5.77987009 1492.43391 87.7878356 1491.4477 87.7798701"></polygon>
                    <polygon id="Rectangle-Copy-85" transform="translate(1509.235309, 41.000000) rotate(-330.000000) translate(-1509.235309, -41.000000) " points="1508.36783 -5.78783558 1509.35403 -5.77987009 1510.10279 87.7878356 1509.11659 87.7798701"></polygon>
                    <polygon id="Rectangle-Copy-86" transform="translate(1526.904190, 41.000000) rotate(-330.000000) translate(-1526.904190, -41.000000) " points="1526.03671 -5.78783558 1527.02291 -5.77987009 1527.77167 87.7878356 1526.78547 87.7798701"></polygon>
                    <polygon id="Rectangle-Copy-87" transform="translate(1544.573071, 41.000000) rotate(-330.000000) translate(-1544.573071, -41.000000) " points="1543.70559 -5.78783558 1544.69179 -5.77987009 1545.44055 87.7878356 1544.45435 87.7798701"></polygon>
                    <polygon id="Rectangle-Copy-88" transform="translate(1562.241952, 41.000000) rotate(-330.000000) translate(-1562.241952, -41.000000) " points="1561.37447 -5.78783558 1562.36068 -5.77987009 1563.10943 87.7878356 1562.12323 87.7798701"></polygon>
                    <polygon id="Rectangle-Copy-89" transform="translate(1579.910833, 41.000000) rotate(-330.000000) translate(-1579.910833, -41.000000) " points="1579.04335 -5.78783558 1580.02956 -5.77987009 1580.77831 87.7878356 1579.79211 87.7798701"></polygon>
                    <polygon id="Rectangle-Copy-90" transform="translate(1597.579714, 41.000000) rotate(-330.000000) translate(-1597.579714, -41.000000) " points="1596.71223 -5.78783558 1597.69844 -5.77987009 1598.44719 87.7878356 1597.46099 87.7798701"></polygon>
                    <polygon id="Rectangle-Copy-91" transform="translate(1615.248595, 41.000000) rotate(-330.000000) translate(-1615.248595, -41.000000) " points="1614.38112 -5.78783558 1615.36732 -5.77987009 1616.11607 87.7878356 1615.12987 87.7798701"></polygon>
                    <polygon id="Rectangle-Copy-92" transform="translate(1632.917476, 41.000000) rotate(-330.000000) translate(-1632.917476, -41.000000) " points="1632.05 -5.78783558 1633.0362 -5.77987009 1633.78496 87.7878356 1632.79875 87.7798701"></polygon>
                    <polygon id="Rectangle-Copy-93" transform="translate(1650.586357, 41.000000) rotate(-330.000000) translate(-1650.586357, -41.000000) " points="1649.71888 -5.78783558 1650.70508 -5.77987009 1651.45384 87.7878356 1650.46763 87.7798701"></polygon>
                    <polygon id="Rectangle-Copy-94" transform="translate(1668.255238, 41.000000) rotate(-330.000000) translate(-1668.255238, -41.000000) " points="1667.38776 -5.78783558 1668.37396 -5.77987009 1669.12272 87.7878356 1668.13651 87.7798701"></polygon>
                    <polygon id="Rectangle-Copy-95" transform="translate(1685.924119, 41.000000) rotate(-330.000000) translate(-1685.924119, -41.000000) " points="1685.05664 -5.78783558 1686.04284 -5.77987009 1686.7916 87.7878356 1685.80539 87.7798701"></polygon>
                    <polygon id="Rectangle-Copy-96" transform="translate(1703.592999, 41.000000) rotate(-330.000000) translate(-1703.592999, -41.000000) " points="1702.72552 -5.78783558 1703.71172 -5.77987009 1704.46048 87.7878356 1703.47428 87.7798701"></polygon>
                    <polygon id="Rectangle-Copy-97" transform="translate(1721.261880, 41.000000) rotate(-330.000000) translate(-1721.261880, -41.000000) " points="1720.3944 -5.78783558 1721.3806 -5.77987009 1722.12936 87.7878356 1721.14316 87.7798701"></polygon>
                    <polygon id="Rectangle-Copy-98" transform="translate(1738.930761, 41.000000) rotate(-330.000000) translate(-1738.930761, -41.000000) " points="1738.06328 -5.78783558 1739.04949 -5.77987009 1739.79824 87.7878356 1738.81204 87.7798701"></polygon>
                    <polygon id="Rectangle-Copy-99" transform="translate(1756.599642, 41.000000) rotate(-330.000000) translate(-1756.599642, -41.000000) " points="1755.73216 -5.78783558 1756.71837 -5.77987009 1757.46712 87.7878356 1756.48092 87.7798701"></polygon>
                    <polygon id="Rectangle-Copy-100" transform="translate(1774.268523, 41.000000) rotate(-330.000000) translate(-1774.268523, -41.000000) " points="1773.40104 -5.78783558 1774.38725 -5.77987009 1775.136 87.7878356 1774.1498 87.7798701"></polygon>
                    <polygon id="Rectangle-Copy-101" transform="translate(1791.937404, 41.000000) rotate(-330.000000) translate(-1791.937404, -41.000000) " points="1791.06992 -5.78783558 1792.05613 -5.77987009 1792.80488 87.7878356 1791.81868 87.7798701"></polygon>
                    <polygon id="Rectangle-Copy-102" transform="translate(1809.606285, 41.000000) rotate(-330.000000) translate(-1809.606285, -41.000000) " points="1808.73881 -5.78783558 1809.72501 -5.77987009 1810.47376 87.7878356 1809.48756 87.7798701"></polygon>
                    <polygon id="Rectangle-Copy-103" transform="translate(1827.275166, 41.000000) rotate(-330.000000) translate(-1827.275166, -41.000000) " points="1826.40769 -5.78783558 1827.39389 -5.77987009 1828.14265 87.7878356 1827.15644 87.7798701"></polygon>
                    <polygon id="Rectangle-Copy-104" transform="translate(1844.944047, 41.000000) rotate(-330.000000) translate(-1844.944047, -41.000000) " points="1844.07657 -5.78783558 1845.06277 -5.77987009 1845.81153 87.7878356 1844.82532 87.7798701"></polygon>
                    <polygon id="Rectangle-Copy-105" transform="translate(1862.612928, 41.000000) rotate(-330.000000) translate(-1862.612928, -41.000000) " points="1861.74545 -5.78783558 1862.73165 -5.77987009 1863.48041 87.7878356 1862.4942 87.7798701"></polygon>
                    <polygon id="Rectangle-Copy-106" transform="translate(1880.281809, 41.000000) rotate(-330.000000) translate(-1880.281809, -41.000000) " points="1879.41433 -5.78783558 1880.40053 -5.77987009 1881.14929 87.7878356 1880.16309 87.7798701"></polygon>
                    <polygon id="Rectangle-Copy-107" transform="translate(1897.950690, 41.000000) rotate(-330.000000) translate(-1897.950690, -41.000000) " points="1897.08321 -5.78783558 1898.06941 -5.77987009 1898.81817 87.7878356 1897.83197 87.7798701"></polygon>
                </g>
                <g id="Group" transform="translate(961.066987, 41.953194) scale(-1, 1) translate(-961.066987, -41.953194) translate(0.566987, 0.953194)" fill="url(#linearGradient-10)">
                    <polygon id="Rectangle" transform="translate(25.024272, 41.000000) rotate(-330.000000) translate(-25.024272, -41.000000) " points="24.1363768 -5.77604867 25.1218137 -5.76764065 25.9121669 87.7760487 24.92673 87.7676407"></polygon>
                    <polygon id="Rectangle-Copy-2" transform="translate(42.674757, 41.000000) rotate(-330.000000) translate(-42.674757, -41.000000) " points="41.7868622 -5.77604867 42.7722991 -5.76764065 43.5626524 87.7760487 42.5772155 87.7676407"></polygon>
                    <polygon id="Rectangle-Copy-3" transform="translate(60.325243, 41.000000) rotate(-330.000000) translate(-60.325243, -41.000000) " points="59.4373476 -5.77604867 60.4227845 -5.76764065 61.2131378 87.7760487 60.2277009 87.7676407"></polygon>
                    <polygon id="Rectangle-Copy-4" transform="translate(77.975728, 41.000000) rotate(-330.000000) translate(-77.975728, -41.000000) " points="77.0878331 -5.77604867 78.07327 -5.76764065 78.8636232 87.7760487 77.8781863 87.7676407"></polygon>
                    <polygon id="Rectangle-Copy-5" transform="translate(95.626214, 41.000000) rotate(-330.000000) translate(-95.626214, -41.000000) " points="94.7383185 -5.77604867 95.7237554 -5.76764065 96.5141087 87.7760487 95.5286718 87.7676407"></polygon>
                    <polygon id="Rectangle-Copy-6" transform="translate(113.276699, 41.000000) rotate(-330.000000) translate(-113.276699, -41.000000) " points="112.388804 -5.77604867 113.374241 -5.76764065 114.164594 87.7760487 113.179157 87.7676407"></polygon>
                    <polygon id="Rectangle-Copy-7" transform="translate(130.927184, 41.000000) rotate(-330.000000) translate(-130.927184, -41.000000) " points="130.039289 -5.77604867 131.024726 -5.76764065 131.81508 87.7760487 130.829643 87.7676407"></polygon>
                    <polygon id="Rectangle-Copy-8" transform="translate(148.577670, 41.000000) rotate(-330.000000) translate(-148.577670, -41.000000) " points="147.689775 -5.77604867 148.675212 -5.76764065 149.465565 87.7760487 148.480128 87.7676407"></polygon>
                    <polygon id="Rectangle-Copy-9" transform="translate(166.228155, 41.000000) rotate(-330.000000) translate(-166.228155, -41.000000) " points="165.34026 -5.77604867 166.325697 -5.76764065 167.11605 87.7760487 166.130614 87.7676407"></polygon>
                    <polygon id="Rectangle-Copy-10" transform="translate(183.878641, 41.000000) rotate(-330.000000) translate(-183.878641, -41.000000) " points="182.990746 -5.77604867 183.976183 -5.76764065 184.766536 87.7760487 183.781099 87.7676407"></polygon>
                    <polygon id="Rectangle-Copy-11" transform="translate(201.529126, 41.000000) rotate(-330.000000) translate(-201.529126, -41.000000) " points="200.641231 -5.77604867 201.626668 -5.76764065 202.417021 87.7760487 201.431584 87.7676407"></polygon>
                    <polygon id="Rectangle-Copy-12" transform="translate(219.179612, 41.000000) rotate(-330.000000) translate(-219.179612, -41.000000) " points="218.291717 -5.77604867 219.277153 -5.76764065 220.067507 87.7760487 219.08207 87.7676407"></polygon>
                    <polygon id="Rectangle-Copy-13" transform="translate(236.830097, 41.000000) rotate(-330.000000) translate(-236.830097, -41.000000) " points="235.942202 -5.77604867 236.927639 -5.76764065 237.717992 87.7760487 236.732555 87.7676407"></polygon>
                    <polygon id="Rectangle-Copy-14" transform="translate(254.480583, 41.000000) rotate(-330.000000) translate(-254.480583, -41.000000) " points="253.592687 -5.77604867 254.578124 -5.76764065 255.368478 87.7760487 254.383041 87.7676407"></polygon>
                    <polygon id="Rectangle-Copy-15" transform="translate(272.131068, 41.000000) rotate(-330.000000) translate(-272.131068, -41.000000) " points="271.243173 -5.77604867 272.22861 -5.76764065 273.018963 87.7760487 272.033526 87.7676407"></polygon>
                    <polygon id="Rectangle-Copy-16" transform="translate(289.781553, 41.000000) rotate(-330.000000) translate(-289.781553, -41.000000) " points="288.893658 -5.77604867 289.879095 -5.76764065 290.669448 87.7760487 289.684012 87.7676407"></polygon>
                    <polygon id="Rectangle-Copy-17" transform="translate(307.432039, 41.000000) rotate(-330.000000) translate(-307.432039, -41.000000) " points="306.544144 -5.77604867 307.529581 -5.76764065 308.319934 87.7760487 307.334497 87.7676407"></polygon>
                    <polygon id="Rectangle-Copy-18" transform="translate(325.082524, 41.000000) rotate(-330.000000) translate(-325.082524, -41.000000) " points="324.194629 -5.77604867 325.180066 -5.76764065 325.970419 87.7760487 324.984982 87.7676407"></polygon>
                    <polygon id="Rectangle-Copy-19" transform="translate(342.733010, 41.000000) rotate(-330.000000) translate(-342.733010, -41.000000) " points="341.845115 -5.77604867 342.830552 -5.76764065 343.620905 87.7760487 342.635468 87.7676407"></polygon>
                    <polygon id="Rectangle-Copy-20" transform="translate(360.383495, 41.000000) rotate(-330.000000) translate(-360.383495, -41.000000) " points="359.4956 -5.77604867 360.481037 -5.76764065 361.27139 87.7760487 360.285953 87.7676407"></polygon>
                    <polygon id="Rectangle-Copy-21" transform="translate(378.033981, 41.000000) rotate(-330.000000) translate(-378.033981, -41.000000) " points="377.146085 -5.77604867 378.131522 -5.76764065 378.921876 87.7760487 377.936439 87.7676407"></polygon>
                    <polygon id="Rectangle-Copy-22" transform="translate(395.684466, 41.000000) rotate(-330.000000) translate(-395.684466, -41.000000) " points="394.796571 -5.77604867 395.782008 -5.76764065 396.572361 87.7760487 395.586924 87.7676407"></polygon>
                    <polygon id="Rectangle-Copy-23" transform="translate(413.334951, 41.000000) rotate(-330.000000) translate(-413.334951, -41.000000) " points="412.447056 -5.77604867 413.432493 -5.76764065 414.222847 87.7760487 413.23741 87.7676407"></polygon>
                    <polygon id="Rectangle-Copy-24" transform="translate(430.985437, 41.000000) rotate(-330.000000) translate(-430.985437, -41.000000) " points="430.097542 -5.77604867 431.082979 -5.76764065 431.873332 87.7760487 430.887895 87.7676407"></polygon>
                    <polygon id="Rectangle-Copy-25" transform="translate(448.635922, 41.000000) rotate(-330.000000) translate(-448.635922, -41.000000) " points="447.748027 -5.77604867 448.733464 -5.76764065 449.523817 87.7760487 448.538381 87.7676407"></polygon>
                    <polygon id="Rectangle-Copy-26" transform="translate(466.286408, 41.000000) rotate(-330.000000) translate(-466.286408, -41.000000) " points="465.398513 -5.77604867 466.38395 -5.76764065 467.174303 87.7760487 466.188866 87.7676407"></polygon>
                    <polygon id="Rectangle-Copy-27" transform="translate(483.936893, 41.000000) rotate(-330.000000) translate(-483.936893, -41.000000) " points="483.048998 -5.77604867 484.034435 -5.76764065 484.824788 87.7760487 483.839351 87.7676407"></polygon>
                    <polygon id="Rectangle-Copy-28" transform="translate(501.587379, 41.000000) rotate(-330.000000) translate(-501.587379, -41.000000) " points="500.699484 -5.77604867 501.68492 -5.76764065 502.475274 87.7760487 501.489837 87.7676407"></polygon>
                    <polygon id="Rectangle-Copy-29" transform="translate(519.237864, 41.000000) rotate(-330.000000) translate(-519.237864, -41.000000) " points="518.349969 -5.77604867 519.335406 -5.76764065 520.125759 87.7760487 519.140322 87.7676407"></polygon>
                    <polygon id="Rectangle-Copy-30" transform="translate(536.888350, 41.000000) rotate(-330.000000) translate(-536.888350, -41.000000) " points="536.000454 -5.77604867 536.985891 -5.76764065 537.776245 87.7760487 536.790808 87.7676407"></polygon>
                    <polygon id="Rectangle-Copy-31" transform="translate(554.538835, 41.000000) rotate(-330.000000) translate(-554.538835, -41.000000) " points="553.65094 -5.77604867 554.636377 -5.76764065 555.42673 87.7760487 554.441293 87.7676407"></polygon>
                    <polygon id="Rectangle-Copy-32" transform="translate(572.189320, 41.000000) rotate(-330.000000) translate(-572.189320, -41.000000) " points="571.301425 -5.77604867 572.286862 -5.76764065 573.077215 87.7760487 572.091779 87.7676407"></polygon>
                    <polygon id="Rectangle-Copy-33" transform="translate(589.839806, 41.000000) rotate(-330.000000) translate(-589.839806, -41.000000) " points="588.951911 -5.77604867 589.937348 -5.76764065 590.727701 87.7760487 589.742264 87.7676407"></polygon>
                    <polygon id="Rectangle-Copy-34" transform="translate(607.490291, 41.000000) rotate(-330.000000) translate(-607.490291, -41.000000) " points="606.602396 -5.77604867 607.587833 -5.76764065 608.378186 87.7760487 607.392749 87.7676407"></polygon>
                    <polygon id="Rectangle-Copy-35" transform="translate(625.140777, 41.000000) rotate(-330.000000) translate(-625.140777, -41.000000) " points="624.252882 -5.77604867 625.238319 -5.76764065 626.028672 87.7760487 625.043235 87.7676407"></polygon>
                    <polygon id="Rectangle-Copy-36" transform="translate(642.791262, 41.000000) rotate(-330.000000) translate(-642.791262, -41.000000) " points="641.903367 -5.77604867 642.888804 -5.76764065 643.679157 87.7760487 642.69372 87.7676407"></polygon>
                    <polygon id="Rectangle-Copy-37" transform="translate(660.441748, 41.000000) rotate(-330.000000) translate(-660.441748, -41.000000) " points="659.553852 -5.77604867 660.539289 -5.76764065 661.329643 87.7760487 660.344206 87.7676407"></polygon>
                    <polygon id="Rectangle-Copy-38" transform="translate(678.092233, 41.000000) rotate(-330.000000) translate(-678.092233, -41.000000) " points="677.204338 -5.77604867 678.189775 -5.76764065 678.980128 87.7760487 677.994691 87.7676407"></polygon>
                    <polygon id="Rectangle-Copy-39" transform="translate(695.742718, 41.000000) rotate(-330.000000) translate(-695.742718, -41.000000) " points="694.854823 -5.77604867 695.84026 -5.76764065 696.630614 87.7760487 695.645177 87.7676407"></polygon>
                    <polygon id="Rectangle-Copy-40" transform="translate(713.393204, 41.000000) rotate(-330.000000) translate(-713.393204, -41.000000) " points="712.505309 -5.77604867 713.490746 -5.76764065 714.281099 87.7760487 713.295662 87.7676407"></polygon>
                    <polygon id="Rectangle-Copy-41" transform="translate(731.043689, 41.000000) rotate(-330.000000) translate(-731.043689, -41.000000) " points="730.155794 -5.77604867 731.141231 -5.76764065 731.931584 87.7760487 730.946148 87.7676407"></polygon>
                    <polygon id="Rectangle-Copy-42" transform="translate(748.694175, 41.000000) rotate(-330.000000) translate(-748.694175, -41.000000) " points="747.80628 -5.77604867 748.791717 -5.76764065 749.58207 87.7760487 748.596633 87.7676407"></polygon>
                    <polygon id="Rectangle-Copy-43" transform="translate(766.344660, 41.000000) rotate(-330.000000) translate(-766.344660, -41.000000) " points="765.456765 -5.77604867 766.442202 -5.76764065 767.232555 87.7760487 766.247118 87.7676407"></polygon>
                    <polygon id="Rectangle-Copy-44" transform="translate(783.995146, 41.000000) rotate(-330.000000) translate(-783.995146, -41.000000) " points="783.107251 -5.77604867 784.092687 -5.76764065 784.883041 87.7760487 783.897604 87.7676407"></polygon>
                    <polygon id="Rectangle-Copy-45" transform="translate(801.645631, 41.000000) rotate(-330.000000) translate(-801.645631, -41.000000) " points="800.757736 -5.77604867 801.743173 -5.76764065 802.533526 87.7760487 801.548089 87.7676407"></polygon>
                    <polygon id="Rectangle-Copy-46" transform="translate(819.296117, 41.000000) rotate(-330.000000) translate(-819.296117, -41.000000) " points="818.408221 -5.77604867 819.393658 -5.76764065 820.184012 87.7760487 819.198575 87.7676407"></polygon>
                    <polygon id="Rectangle-Copy-47" transform="translate(836.946602, 41.000000) rotate(-330.000000) translate(-836.946602, -41.000000) " points="836.058707 -5.77604867 837.044144 -5.76764065 837.834497 87.7760487 836.84906 87.7676407"></polygon>
                    <polygon id="Rectangle-Copy-48" transform="translate(854.597087, 41.000000) rotate(-330.000000) translate(-854.597087, -41.000000) " points="853.709192 -5.77604867 854.694629 -5.76764065 855.484982 87.7760487 854.499546 87.7676407"></polygon>
                    <polygon id="Rectangle-Copy-49" transform="translate(872.247573, 41.000000) rotate(-330.000000) translate(-872.247573, -41.000000) " points="871.359678 -5.77604867 872.345115 -5.76764065 873.135468 87.7760487 872.150031 87.7676407"></polygon>
                    <polygon id="Rectangle-Copy-50" transform="translate(889.898058, 41.000000) rotate(-330.000000) translate(-889.898058, -41.000000) " points="889.010163 -5.77604867 889.9956 -5.76764065 890.785953 87.7760487 889.800516 87.7676407"></polygon>
                    <polygon id="Rectangle-Copy-51" transform="translate(907.548544, 41.000000) rotate(-330.000000) translate(-907.548544, -41.000000) " points="906.660649 -5.77604867 907.646085 -5.76764065 908.436439 87.7760487 907.451002 87.7676407"></polygon>
                    <polygon id="Rectangle-Copy-52" transform="translate(925.199029, 41.000000) rotate(-330.000000) translate(-925.199029, -41.000000) " points="924.311134 -5.77604867 925.296571 -5.76764065 926.086924 87.7760487 925.101487 87.7676407"></polygon>
                    <polygon id="Rectangle-Copy-53" transform="translate(942.849515, 41.000000) rotate(-330.000000) translate(-942.849515, -41.000000) " points="941.961619 -5.77604867 942.947056 -5.76764065 943.73741 87.7760487 942.751973 87.7676407"></polygon>
                    <polygon id="Rectangle-Copy-54" transform="translate(960.500000, 41.000000) rotate(-330.000000) translate(-960.500000, -41.000000) " points="959.612105 -5.77604867 960.597542 -5.76764065 961.387895 87.7760487 960.402458 87.7676407"></polygon>
                    <polygon id="Rectangle-Copy-55" transform="translate(978.150485, 41.000000) rotate(-330.000000) translate(-978.150485, -41.000000) " points="977.26259 -5.77604867 978.248027 -5.76764065 979.038381 87.7760487 978.052944 87.7676407"></polygon>
                    <polygon id="Rectangle-Copy-56" transform="translate(995.800971, 41.000000) rotate(-330.000000) translate(-995.800971, -41.000000) " points="994.913076 -5.77604867 995.898513 -5.76764065 996.688866 87.7760487 995.703429 87.7676407"></polygon>
                    <polygon id="Rectangle-Copy-57" transform="translate(1013.451456, 41.000000) rotate(-330.000000) translate(-1013.451456, -41.000000) " points="1012.56356 -5.77604867 1013.549 -5.76764065 1014.33935 87.7760487 1013.35391 87.7676407"></polygon>
                    <polygon id="Rectangle-Copy-58" transform="translate(1031.101942, 41.000000) rotate(-330.000000) translate(-1031.101942, -41.000000) " points="1030.21405 -5.77604867 1031.19948 -5.76764065 1031.98984 87.7760487 1031.0044 87.7676407"></polygon>
                    <polygon id="Rectangle-Copy-59" transform="translate(1048.752427, 41.000000) rotate(-330.000000) translate(-1048.752427, -41.000000) " points="1047.86453 -5.77604867 1048.84997 -5.76764065 1049.64032 87.7760487 1048.65489 87.7676407"></polygon>
                    <polygon id="Rectangle-Copy-60" transform="translate(1066.402913, 41.000000) rotate(-330.000000) translate(-1066.402913, -41.000000) " points="1065.51502 -5.77604867 1066.50045 -5.76764065 1067.29081 87.7760487 1066.30537 87.7676407"></polygon>
                    <polygon id="Rectangle-Copy-61" transform="translate(1084.053398, 41.000000) rotate(-330.000000) translate(-1084.053398, -41.000000) " points="1083.1655 -5.77604867 1084.15094 -5.76764065 1084.94129 87.7760487 1083.95586 87.7676407"></polygon>
                    <polygon id="Rectangle-Copy-62" transform="translate(1101.703883, 41.000000) rotate(-330.000000) translate(-1101.703883, -41.000000) " points="1100.81599 -5.77604867 1101.80143 -5.76764065 1102.59178 87.7760487 1101.60634 87.7676407"></polygon>
                    <polygon id="Rectangle-Copy-63" transform="translate(1119.354369, 41.000000) rotate(-330.000000) translate(-1119.354369, -41.000000) " points="1118.46647 -5.77604867 1119.45191 -5.76764065 1120.24226 87.7760487 1119.25683 87.7676407"></polygon>
                    <polygon id="Rectangle-Copy-64" transform="translate(1137.004854, 41.000000) rotate(-330.000000) translate(-1137.004854, -41.000000) " points="1136.11696 -5.77604867 1137.1024 -5.76764065 1137.89275 87.7760487 1136.90731 87.7676407"></polygon>
                    <polygon id="Rectangle-Copy-65" transform="translate(1154.655340, 41.000000) rotate(-330.000000) translate(-1154.655340, -41.000000) " points="1153.76744 -5.77604867 1154.75288 -5.76764065 1155.54323 87.7760487 1154.5578 87.7676407"></polygon>
                    <polygon id="Rectangle-Copy-66" transform="translate(1172.305825, 41.000000) rotate(-330.000000) translate(-1172.305825, -41.000000) " points="1171.41793 -5.77604867 1172.40337 -5.76764065 1173.19372 87.7760487 1172.20828 87.7676407"></polygon>
                    <polygon id="Rectangle-Copy-67" transform="translate(1189.956311, 41.000000) rotate(-330.000000) translate(-1189.956311, -41.000000) " points="1189.06842 -5.77604867 1190.05385 -5.76764065 1190.84421 87.7760487 1189.85877 87.7676407"></polygon>
                    <polygon id="Rectangle-Copy-68" transform="translate(1207.606796, 41.000000) rotate(-330.000000) translate(-1207.606796, -41.000000) " points="1206.7189 -5.77604867 1207.70434 -5.76764065 1208.49469 87.7760487 1207.50925 87.7676407"></polygon>
                    <polygon id="Rectangle-Copy-69" transform="translate(1225.257282, 41.000000) rotate(-330.000000) translate(-1225.257282, -41.000000) " points="1224.36939 -5.77604867 1225.35482 -5.76764065 1226.14518 87.7760487 1225.15974 87.7676407"></polygon>
                    <polygon id="Rectangle-Copy-70" transform="translate(1242.907767, 41.000000) rotate(-330.000000) translate(-1242.907767, -41.000000) " points="1242.01987 -5.77604867 1243.00531 -5.76764065 1243.79566 87.7760487 1242.81023 87.7676407"></polygon>
                    <polygon id="Rectangle-Copy-71" transform="translate(1260.558252, 41.000000) rotate(-330.000000) translate(-1260.558252, -41.000000) " points="1259.67036 -5.77604867 1260.65579 -5.76764065 1261.44615 87.7760487 1260.46071 87.7676407"></polygon>
                    <polygon id="Rectangle-Copy-72" transform="translate(1278.208738, 41.000000) rotate(-330.000000) translate(-1278.208738, -41.000000) " points="1277.32084 -5.77604867 1278.30628 -5.76764065 1279.09663 87.7760487 1278.1112 87.7676407"></polygon>
                    <polygon id="Rectangle-Copy-73" transform="translate(1295.859223, 41.000000) rotate(-330.000000) translate(-1295.859223, -41.000000) " points="1294.97133 -5.77604867 1295.95677 -5.76764065 1296.74712 87.7760487 1295.76168 87.7676407"></polygon>
                    <polygon id="Rectangle-Copy-74" transform="translate(1313.509709, 41.000000) rotate(-330.000000) translate(-1313.509709, -41.000000) " points="1312.62181 -5.77604867 1313.60725 -5.76764065 1314.3976 87.7760487 1313.41217 87.7676407"></polygon>
                    <polygon id="Rectangle-Copy-75" transform="translate(1331.160194, 41.000000) rotate(-330.000000) translate(-1331.160194, -41.000000) " points="1330.2723 -5.77604867 1331.25774 -5.76764065 1332.04809 87.7760487 1331.06265 87.7676407"></polygon>
                    <polygon id="Rectangle-Copy-76" transform="translate(1348.810680, 41.000000) rotate(-330.000000) translate(-1348.810680, -41.000000) " points="1347.92278 -5.77604867 1348.90822 -5.76764065 1349.69857 87.7760487 1348.71314 87.7676407"></polygon>
                    <polygon id="Rectangle-Copy-77" transform="translate(1366.461165, 41.000000) rotate(-330.000000) translate(-1366.461165, -41.000000) " points="1365.57327 -5.77604867 1366.55871 -5.76764065 1367.34906 87.7760487 1366.36362 87.7676407"></polygon>
                    <polygon id="Rectangle-Copy-78" transform="translate(1384.111650, 41.000000) rotate(-330.000000) translate(-1384.111650, -41.000000) " points="1383.22376 -5.77604867 1384.20919 -5.76764065 1384.99955 87.7760487 1384.01411 87.7676407"></polygon>
                    <polygon id="Rectangle-Copy-79" transform="translate(1401.762136, 41.000000) rotate(-330.000000) translate(-1401.762136, -41.000000) " points="1400.87424 -5.77604867 1401.85968 -5.76764065 1402.65003 87.7760487 1401.66459 87.7676407"></polygon>
                    <polygon id="Rectangle-Copy-80" transform="translate(1419.412621, 41.000000) rotate(-330.000000) translate(-1419.412621, -41.000000) " points="1418.52473 -5.77604867 1419.51016 -5.76764065 1420.30052 87.7760487 1419.31508 87.7676407"></polygon>
                    <polygon id="Rectangle-Copy-81" transform="translate(1437.063107, 41.000000) rotate(-330.000000) translate(-1437.063107, -41.000000) " points="1436.17521 -5.77604867 1437.16065 -5.76764065 1437.951 87.7760487 1436.96556 87.7676407"></polygon>
                    <polygon id="Rectangle-Copy-82" transform="translate(1454.713592, 41.000000) rotate(-330.000000) translate(-1454.713592, -41.000000) " points="1453.8257 -5.77604867 1454.81113 -5.76764065 1455.60149 87.7760487 1454.61605 87.7676407"></polygon>
                    <polygon id="Rectangle-Copy-83" transform="translate(1472.364078, 41.000000) rotate(-330.000000) translate(-1472.364078, -41.000000) " points="1471.47618 -5.77604867 1472.46162 -5.76764065 1473.25197 87.7760487 1472.26654 87.7676407"></polygon>
                    <polygon id="Rectangle-Copy-84" transform="translate(1490.014563, 41.000000) rotate(-330.000000) translate(-1490.014563, -41.000000) " points="1489.12667 -5.77604867 1490.1121 -5.76764065 1490.90246 87.7760487 1489.91702 87.7676407"></polygon>
                    <polygon id="Rectangle-Copy-85" transform="translate(1507.665049, 41.000000) rotate(-330.000000) translate(-1507.665049, -41.000000) " points="1506.77715 -5.77604867 1507.76259 -5.76764065 1508.55294 87.7760487 1507.56751 87.7676407"></polygon>
                    <polygon id="Rectangle-Copy-86" transform="translate(1525.315534, 41.000000) rotate(-330.000000) translate(-1525.315534, -41.000000) " points="1524.42764 -5.77604867 1525.41308 -5.76764065 1526.20343 87.7760487 1525.21799 87.7676407"></polygon>
                    <polygon id="Rectangle-Copy-87" transform="translate(1542.966019, 41.000000) rotate(-330.000000) translate(-1542.966019, -41.000000) " points="1542.07812 -5.77604867 1543.06356 -5.76764065 1543.85391 87.7760487 1542.86848 87.7676407"></polygon>
                    <polygon id="Rectangle-Copy-88" transform="translate(1560.616505, 41.000000) rotate(-330.000000) translate(-1560.616505, -41.000000) " points="1559.72861 -5.77604867 1560.71405 -5.76764065 1561.5044 87.7760487 1560.51896 87.7676407"></polygon>
                    <polygon id="Rectangle-Copy-89" transform="translate(1578.266990, 41.000000) rotate(-330.000000) translate(-1578.266990, -41.000000) " points="1577.3791 -5.77604867 1578.36453 -5.76764065 1579.15489 87.7760487 1578.16945 87.7676407"></polygon>
                    <polygon id="Rectangle-Copy-90" transform="translate(1595.917476, 41.000000) rotate(-330.000000) translate(-1595.917476, -41.000000) " points="1595.02958 -5.77604867 1596.01502 -5.76764065 1596.80537 87.7760487 1595.81993 87.7676407"></polygon>
                    <polygon id="Rectangle-Copy-91" transform="translate(1613.567961, 41.000000) rotate(-330.000000) translate(-1613.567961, -41.000000) " points="1612.68007 -5.77604867 1613.6655 -5.76764065 1614.45586 87.7760487 1613.47042 87.7676407"></polygon>
                    <polygon id="Rectangle-Copy-92" transform="translate(1631.218447, 41.000000) rotate(-330.000000) translate(-1631.218447, -41.000000) " points="1630.33055 -5.77604867 1631.31599 -5.76764065 1632.10634 87.7760487 1631.1209 87.7676407"></polygon>
                    <polygon id="Rectangle-Copy-93" transform="translate(1648.868932, 41.000000) rotate(-330.000000) translate(-1648.868932, -41.000000) " points="1647.98104 -5.77604867 1648.96647 -5.76764065 1649.75683 87.7760487 1648.77139 87.7676407"></polygon>
                    <polygon id="Rectangle-Copy-94" transform="translate(1666.519417, 41.000000) rotate(-330.000000) translate(-1666.519417, -41.000000) " points="1665.63152 -5.77604867 1666.61696 -5.76764065 1667.40731 87.7760487 1666.42188 87.7676407"></polygon>
                    <polygon id="Rectangle-Copy-95" transform="translate(1684.169903, 41.000000) rotate(-330.000000) translate(-1684.169903, -41.000000) " points="1683.28201 -5.77604867 1684.26744 -5.76764065 1685.0578 87.7760487 1684.07236 87.7676407"></polygon>
                    <polygon id="Rectangle-Copy-96" transform="translate(1701.820388, 41.000000) rotate(-330.000000) translate(-1701.820388, -41.000000) " points="1700.93249 -5.77604867 1701.91793 -5.76764065 1702.70828 87.7760487 1701.72285 87.7676407"></polygon>
                    <polygon id="Rectangle-Copy-97" transform="translate(1719.470874, 41.000000) rotate(-330.000000) translate(-1719.470874, -41.000000) " points="1718.58298 -5.77604867 1719.56842 -5.76764065 1720.35877 87.7760487 1719.37333 87.7676407"></polygon>
                    <polygon id="Rectangle-Copy-98" transform="translate(1737.121359, 41.000000) rotate(-330.000000) translate(-1737.121359, -41.000000) " points="1736.23346 -5.77604867 1737.2189 -5.76764065 1738.00925 87.7760487 1737.02382 87.7676407"></polygon>
                    <polygon id="Rectangle-Copy-99" transform="translate(1754.771845, 41.000000) rotate(-330.000000) translate(-1754.771845, -41.000000) " points="1753.88395 -5.77604867 1754.86939 -5.76764065 1755.65974 87.7760487 1754.6743 87.7676407"></polygon>
                    <polygon id="Rectangle-Copy-100" transform="translate(1772.422330, 41.000000) rotate(-330.000000) translate(-1772.422330, -41.000000) " points="1771.53444 -5.77604867 1772.51987 -5.76764065 1773.31023 87.7760487 1772.32479 87.7676407"></polygon>
                    <polygon id="Rectangle-Copy-101" transform="translate(1790.072816, 41.000000) rotate(-330.000000) translate(-1790.072816, -41.000000) " points="1789.18492 -5.77604867 1790.17036 -5.76764065 1790.96071 87.7760487 1789.97527 87.7676407"></polygon>
                    <polygon id="Rectangle-Copy-102" transform="translate(1807.723301, 41.000000) rotate(-330.000000) translate(-1807.723301, -41.000000) " points="1806.83541 -5.77604867 1807.82084 -5.76764065 1808.6112 87.7760487 1807.62576 87.7676407"></polygon>
                    <polygon id="Rectangle-Copy-103" transform="translate(1825.373786, 41.000000) rotate(-330.000000) translate(-1825.373786, -41.000000) " points="1824.48589 -5.77604867 1825.47133 -5.76764065 1826.26168 87.7760487 1825.27624 87.7676407"></polygon>
                    <polygon id="Rectangle-Copy-104" transform="translate(1843.024272, 41.000000) rotate(-330.000000) translate(-1843.024272, -41.000000) " points="1842.13638 -5.77604867 1843.12181 -5.76764065 1843.91217 87.7760487 1842.92673 87.7676407"></polygon>
                    <polygon id="Rectangle-Copy-105" transform="translate(1860.674757, 41.000000) rotate(-330.000000) translate(-1860.674757, -41.000000) " points="1859.78686 -5.77604867 1860.7723 -5.76764065 1861.56265 87.7760487 1860.57722 87.7676407"></polygon>
                    <polygon id="Rectangle-Copy-106" transform="translate(1878.325243, 41.000000) rotate(-330.000000) translate(-1878.325243, -41.000000) " points="1877.43735 -5.77604867 1878.42278 -5.76764065 1879.21314 87.7760487 1878.2277 87.7676407"></polygon>
                    <polygon id="Rectangle-Copy-107" transform="translate(1895.975728, 41.000000) rotate(-330.000000) translate(-1895.975728, -41.000000) " points="1895.08783 -5.77604867 1896.07327 -5.76764065 1896.86362 87.7760487 1895.87819 87.7676407"></polygon>
                </g>
                <g id="编组-2" transform="translate(962.000000, 83.500000) scale(-1, 1) translate(-962.000000, -83.500000) translate(46.000000, 82.000000)" fill="url(#linearGradient-11)">
                    <path d="M1830,-1.86517468e-14 L1832,3 L1829,3 L1827,-1.86517468e-14 L1830,-1.86517468e-14 Z M1813,-1.86517468e-14 L1815,3 L1812,3 L1810,-1.86517468e-14 L1813,-1.86517468e-14 Z M1796,-1.86517468e-14 L1798,3 L1795,3 L1793,-1.86517468e-14 L1796,-1.86517468e-14 Z M1779,-1.86517468e-14 L1781,3 L1778,3 L1776,-1.86517468e-14 L1779,-1.86517468e-14 Z M1762,-1.86517468e-14 L1764,3 L1761,3 L1759,-1.86517468e-14 L1762,-1.86517468e-14 Z M1745,-1.86517468e-14 L1747,3 L1744,3 L1742,-1.86517468e-14 L1745,-1.86517468e-14 Z M1728,-1.86517468e-14 L1730,3 L1727,3 L1725,-1.86517468e-14 L1728,-1.86517468e-14 Z M1711,-1.86517468e-14 L1713,3 L1710,3 L1708,-1.86517468e-14 L1711,-1.86517468e-14 Z M1694,-1.86517468e-14 L1696,3 L1693,3 L1691,-1.86517468e-14 L1694,-1.86517468e-14 Z M1677,-1.86517468e-14 L1679,3 L1676,3 L1674,-1.86517468e-14 L1677,-1.86517468e-14 Z M1660,-1.86517468e-14 L1662,3 L1659,3 L1657,-1.86517468e-14 L1660,-1.86517468e-14 Z M1643,-1.86517468e-14 L1645,3 L1642,3 L1640,-1.86517468e-14 L1643,-1.86517468e-14 Z M1626,-1.86517468e-14 L1628,3 L1625,3 L1623,-1.86517468e-14 L1626,-1.86517468e-14 Z M1609,-1.86517468e-14 L1611,3 L1608,3 L1606,-1.86517468e-14 L1609,-1.86517468e-14 Z M1592,-1.86517468e-14 L1594,3 L1591,3 L1589,-1.86517468e-14 L1592,-1.86517468e-14 Z M1575,-1.86517468e-14 L1577,3 L1574,3 L1572,-1.86517468e-14 L1575,-1.86517468e-14 Z M1558,-1.86517468e-14 L1560,3 L1557,3 L1555,-1.86517468e-14 L1558,-1.86517468e-14 Z M1541,-1.86517468e-14 L1543,3 L1540,3 L1538,-1.86517468e-14 L1541,-1.86517468e-14 Z M1524,-1.86517468e-14 L1526,3 L1523,3 L1521,-1.86517468e-14 L1524,-1.86517468e-14 Z M1507,-1.86517468e-14 L1509,3 L1506,3 L1504,-1.86517468e-14 L1507,-1.86517468e-14 Z M1490,-1.86517468e-14 L1492,3 L1489,3 L1487,-1.86517468e-14 L1490,-1.86517468e-14 Z M1473,-1.86517468e-14 L1475,3 L1472,3 L1470,-1.86517468e-14 L1473,-1.86517468e-14 Z M1456,-1.86517468e-14 L1458,3 L1455,3 L1453,-1.86517468e-14 L1456,-1.86517468e-14 Z M1439,-1.86517468e-14 L1441,3 L1438,3 L1436,-1.86517468e-14 L1439,-1.86517468e-14 Z M1422,-1.86517468e-14 L1424,3 L1421,3 L1419,-1.86517468e-14 L1422,-1.86517468e-14 Z M1405,-1.86517468e-14 L1407,3 L1404,3 L1402,-1.86517468e-14 L1405,-1.86517468e-14 Z M1388,-1.86517468e-14 L1390,3 L1387,3 L1385,-1.86517468e-14 L1388,-1.86517468e-14 Z M1371,-1.86517468e-14 L1373,3 L1370,3 L1368,-1.86517468e-14 L1371,-1.86517468e-14 Z M1354,-1.86517468e-14 L1356,3 L1353,3 L1351,-1.86517468e-14 L1354,-1.86517468e-14 Z M1337,-1.86517468e-14 L1339,3 L1336,3 L1334,-1.86517468e-14 L1337,-1.86517468e-14 Z M1320,-1.86517468e-14 L1322,3 L1319,3 L1317,-1.86517468e-14 L1320,-1.86517468e-14 Z" id="Combined-Shape" filter="url(#filter-12)"></path>
                    <path d="M1830,-1.86517468e-14 L1832,3 L1829,3 L1827,-1.86517468e-14 L1830,-1.86517468e-14 Z M1813,-1.86517468e-14 L1815,3 L1812,3 L1810,-1.86517468e-14 L1813,-1.86517468e-14 Z M1796,-1.86517468e-14 L1798,3 L1795,3 L1793,-1.86517468e-14 L1796,-1.86517468e-14 Z M1779,-1.86517468e-14 L1781,3 L1778,3 L1776,-1.86517468e-14 L1779,-1.86517468e-14 Z M1762,-1.86517468e-14 L1764,3 L1761,3 L1759,-1.86517468e-14 L1762,-1.86517468e-14 Z M1745,-1.86517468e-14 L1747,3 L1744,3 L1742,-1.86517468e-14 L1745,-1.86517468e-14 Z M1728,-1.86517468e-14 L1730,3 L1727,3 L1725,-1.86517468e-14 L1728,-1.86517468e-14 Z M1711,-1.86517468e-14 L1713,3 L1710,3 L1708,-1.86517468e-14 L1711,-1.86517468e-14 Z M1694,-1.86517468e-14 L1696,3 L1693,3 L1691,-1.86517468e-14 L1694,-1.86517468e-14 Z M1677,-1.86517468e-14 L1679,3 L1676,3 L1674,-1.86517468e-14 L1677,-1.86517468e-14 Z M1660,-1.86517468e-14 L1662,3 L1659,3 L1657,-1.86517468e-14 L1660,-1.86517468e-14 Z M1643,-1.86517468e-14 L1645,3 L1642,3 L1640,-1.86517468e-14 L1643,-1.86517468e-14 Z M1626,-1.86517468e-14 L1628,3 L1625,3 L1623,-1.86517468e-14 L1626,-1.86517468e-14 Z M1609,-1.86517468e-14 L1611,3 L1608,3 L1606,-1.86517468e-14 L1609,-1.86517468e-14 Z M1592,-1.86517468e-14 L1594,3 L1591,3 L1589,-1.86517468e-14 L1592,-1.86517468e-14 Z M1575,-1.86517468e-14 L1577,3 L1574,3 L1572,-1.86517468e-14 L1575,-1.86517468e-14 Z M1558,-1.86517468e-14 L1560,3 L1557,3 L1555,-1.86517468e-14 L1558,-1.86517468e-14 Z M1541,-1.86517468e-14 L1543,3 L1540,3 L1538,-1.86517468e-14 L1541,-1.86517468e-14 Z M1524,-1.86517468e-14 L1526,3 L1523,3 L1521,-1.86517468e-14 L1524,-1.86517468e-14 Z M1507,-1.86517468e-14 L1509,3 L1506,3 L1504,-1.86517468e-14 L1507,-1.86517468e-14 Z M1490,-1.86517468e-14 L1492,3 L1489,3 L1487,-1.86517468e-14 L1490,-1.86517468e-14 Z M1473,-1.86517468e-14 L1475,3 L1472,3 L1470,-1.86517468e-14 L1473,-1.86517468e-14 Z M1456,-1.86517468e-14 L1458,3 L1455,3 L1453,-1.86517468e-14 L1456,-1.86517468e-14 Z M1439,-1.86517468e-14 L1441,3 L1438,3 L1436,-1.86517468e-14 L1439,-1.86517468e-14 Z M1422,-1.86517468e-14 L1424,3 L1421,3 L1419,-1.86517468e-14 L1422,-1.86517468e-14 Z M1405,-1.86517468e-14 L1407,3 L1404,3 L1402,-1.86517468e-14 L1405,-1.86517468e-14 Z M1388,-1.86517468e-14 L1390,3 L1387,3 L1385,-1.86517468e-14 L1388,-1.86517468e-14 Z M1371,-1.86517468e-14 L1373,3 L1370,3 L1368,-1.86517468e-14 L1371,-1.86517468e-14 Z M1354,-1.86517468e-14 L1356,3 L1353,3 L1351,-1.86517468e-14 L1354,-1.86517468e-14 Z M1337,-1.86517468e-14 L1339,3 L1336,3 L1334,-1.86517468e-14 L1337,-1.86517468e-14 Z M1320,-1.86517468e-14 L1322,3 L1319,3 L1317,-1.86517468e-14 L1320,-1.86517468e-14 Z" id="Combined-Shape"></path>
                    <path d="M513,-1.15463195e-14 L515,3 L512,3 L510,-1.15463195e-14 L513,-1.15463195e-14 Z M496,-1.15463195e-14 L498,3 L495,3 L493,-1.15463195e-14 L496,-1.15463195e-14 Z M479,-1.15463195e-14 L481,3 L478,3 L476,-1.15463195e-14 L479,-1.15463195e-14 Z M462,-1.15463195e-14 L464,3 L461,3 L459,-1.15463195e-14 L462,-1.15463195e-14 Z M445,-1.15463195e-14 L447,3 L444,3 L442,-1.15463195e-14 L445,-1.15463195e-14 Z M428,-1.15463195e-14 L430,3 L427,3 L425,-1.15463195e-14 L428,-1.15463195e-14 Z M411,-1.15463195e-14 L413,3 L410,3 L408,-1.15463195e-14 L411,-1.15463195e-14 Z M394,-1.15463195e-14 L396,3 L393,3 L391,-1.15463195e-14 L394,-1.15463195e-14 Z M377,-1.15463195e-14 L379,3 L376,3 L374,-1.15463195e-14 L377,-1.15463195e-14 Z M360,-1.15463195e-14 L362,3 L359,3 L357,-1.15463195e-14 L360,-1.15463195e-14 Z M343,-1.15463195e-14 L345,3 L342,3 L340,-1.15463195e-14 L343,-1.15463195e-14 Z M326,-1.15463195e-14 L328,3 L325,3 L323,-1.15463195e-14 L326,-1.15463195e-14 Z M309,-1.15463195e-14 L311,3 L308,3 L306,-1.15463195e-14 L309,-1.15463195e-14 Z M292,-1.15463195e-14 L294,3 L291,3 L289,-1.15463195e-14 L292,-1.15463195e-14 Z M275,-1.15463195e-14 L277,3 L274,3 L272,-1.15463195e-14 L275,-1.15463195e-14 Z M258,-1.15463195e-14 L260,3 L257,3 L255,-1.15463195e-14 L258,-1.15463195e-14 Z M241,-1.15463195e-14 L243,3 L240,3 L238,-1.15463195e-14 L241,-1.15463195e-14 Z M224,-1.15463195e-14 L226,3 L223,3 L221,-1.15463195e-14 L224,-1.15463195e-14 Z M207,-1.15463195e-14 L209,3 L206,3 L204,-1.15463195e-14 L207,-1.15463195e-14 Z M190,-1.15463195e-14 L192,3 L189,3 L187,-1.15463195e-14 L190,-1.15463195e-14 Z M173,-1.15463195e-14 L175,3 L172,3 L170,-1.15463195e-14 L173,-1.15463195e-14 Z M156,-1.15463195e-14 L158,3 L155,3 L153,-1.15463195e-14 L156,-1.15463195e-14 Z M139,-1.15463195e-14 L141,3 L138,3 L136,-1.15463195e-14 L139,-1.15463195e-14 Z M122,-1.15463195e-14 L124,3 L121,3 L119,-1.15463195e-14 L122,-1.15463195e-14 Z M105,-1.15463195e-14 L107,3 L104,3 L102,-1.15463195e-14 L105,-1.15463195e-14 Z M88,-1.15463195e-14 L90,3 L87,3 L85,-1.15463195e-14 L88,-1.15463195e-14 Z M71,-1.15463195e-14 L73,3 L70,3 L68,-1.15463195e-14 L71,-1.15463195e-14 Z M54,-1.15463195e-14 L56,3 L53,3 L51,-1.15463195e-14 L54,-1.15463195e-14 Z M37,-1.15463195e-14 L39,3 L36,3 L34,-1.15463195e-14 L37,-1.15463195e-14 Z M20,-1.15463195e-14 L22,3 L19,3 L17,-1.15463195e-14 L20,-1.15463195e-14 Z M3,-1.15463195e-14 L5,3 L2,3 L1.02140518e-14,-1.15463195e-14 L3,-1.15463195e-14 Z" id="Combined-Shape备份" transform="translate(257.500000, 1.500000) scale(-1, 1) translate(-257.500000, -1.500000) "></path>
                </g>
                <rect id="Rectangle-Copy-141" fill="url(#linearGradient-13)" x="24" y="68" width="600" height="1"></rect>
                <rect id="Rectangle-Copy-141备份" fill="url(#linearGradient-13)" x="1322" y="68" width="600" height="1"></rect>
                <g id="标题框上" transform="translate(61.000000, 9.000000)">
                    <g id="组_2" transform="translate(617.000000, 0.000000)">
                        <polygon id="路径_1" fill="url(#linearGradient-14)" opacity="0.49" points="0 0 65.871 69.047619 71.999255 69.047619 80.42455 60.7066667 483.336907 60.7066667 490.996522 68.295 497.893272 68.295 563 0"></polygon>
                        <polygon id="路径_1-copy" fill="url(#radialGradient-15)" opacity="0.49" points="0 0 65.871 69.047619 71.999255 69.047619 80.42455 60.7066667 483.336907 60.7066667 490.996522 68.295 497.893272 68.295 563 0"></polygon>
                        <g id="分组" stroke="#255BAC">
                            <polyline id="路径_2-2" points="0 0 65.871 69.047619 71.999255 69.047619 80.42455 60.7066667 483.336907 60.7066667 490.996522 68.295 497.893272 68.295 563 0"></polyline>
                        </g>
                        <polygon id="路径_3" fill="#00A2FF" points="83.8630725 64.0651429 79.3027725 68.6650952 483.697227 68.6650952 479.136927 64.0651429"></polygon>
                    </g>
                    <polygon id="路径_47" fill="url(#linearGradient-16)" opacity="0.6" points="1214.82207 11 1174 59 1799 59 1799 11"></polygon>
                    <polygon id="路径_48" fill="url(#linearGradient-17)" opacity="0.6" points="584.177928 11 625 59 0 59 0 11"></polygon>
                    <line x1="1186" y1="11" x2="1143" y2="59" id="路径_49" stroke="#00A2FF" stroke-width="4" opacity="0.61" stroke-linecap="square"></line>
                    <line x1="613" y1="11" x2="656" y2="59" id="路径_51" stroke="#00A2FF" stroke-width="4" opacity="0.61" stroke-linecap="square"></line>
                    <line x1="1181" y1="34" x2="1159" y2="59" id="路径_50" stroke="#00A2FF" stroke-width="4" stroke-linecap="square"></line>
                    <line x1="618" y1="34" x2="640" y2="59" id="路径_52" stroke="#00A2FF" stroke-width="4" stroke-linecap="square"></line>
                </g>
            </g>
        </g>
    </g>
</svg>