<?xml version="1.0" encoding="UTF-8"?>
<svg width="746px" height="98px" viewBox="0 0 746 98" version="1.1" xmlns="http://www.w3.org/2000/svg" xmlns:xlink="http://www.w3.org/1999/xlink">
    <title>编组 50备份 3</title>
    <defs>
        <linearGradient x1="50%" y1="100%" x2="50%" y2="3.061617e-15%" id="linearGradient-1">
            <stop stop-color="#05497C" offset="0%"></stop>
            <stop stop-color="#022346" offset="100%"></stop>
        </linearGradient>
        <linearGradient x1="50%" y1="100%" x2="50%" y2="3.061617e-15%" id="linearGradient-2">
            <stop stop-color="#004477" offset="0.0874125874%"></stop>
            <stop stop-color="#022346" offset="100%"></stop>
        </linearGradient>
        <path d="M0,0 L680,0 L680,7.625 C680,18.670695 671.045695,27.625 660,27.625 L434.22064,27.625 C433.403022,27.625 432.588489,27.7252735 431.795283,27.923575 L420.017217,30.8680917 C419.224011,31.0663932 418.409478,31.1666667 417.59186,31.1666667 L262.556062,31.1666667 C261.757672,31.1666667 260.962153,31.0710537 260.186501,30.8818701 L248.000999,27.9097966 C247.225347,27.720613 246.429828,27.625 245.631438,27.625 L20,27.625 C8.954305,27.625 -6.00713028e-14,18.670695 0,7.625 L0,0 L0,0 Z" id="path-3"></path>
        <filter x="-7.5%" y="-163.6%" width="115.0%" height="427.3%" filterUnits="objectBoundingBox" id="filter-4">
            <feOffset dx="0" dy="0" in="SourceAlpha" result="shadowOffsetOuter1"></feOffset>
            <feGaussianBlur stdDeviation="17" in="shadowOffsetOuter1" result="shadowBlurOuter1"></feGaussianBlur>
            <feColorMatrix values="0 0 0 0 0   0 0 0 0 0   0 0 0 0 0  0 0 0 0.5 0" type="matrix" in="shadowBlurOuter1"></feColorMatrix>
        </filter>
        <filter id="filter-5">
            <feColorMatrix in="SourceGraphic" type="matrix" values="0 0 0 0 0.000000 0 0 0 0 0.513889 0 0 0 0 1.000000 0 0 0 1.000000 0"></feColorMatrix>
        </filter>
        <filter x="-6.8%" y="-187.1%" width="113.5%" height="438.7%" filterUnits="objectBoundingBox" id="filter-6">
            <feOffset dx="0" dy="10" in="SourceAlpha" result="shadowOffsetOuter1"></feOffset>
            <feGaussianBlur stdDeviation="7" in="shadowOffsetOuter1" result="shadowBlurOuter1"></feGaussianBlur>
            <feColorMatrix values="0 0 0 0 0   0 0 0 0 0   0 0 0 0 0  0 0 0 0.5 0" type="matrix" in="shadowBlurOuter1" result="shadowMatrixOuter1"></feColorMatrix>
            <feMerge>
                <feMergeNode in="shadowMatrixOuter1"></feMergeNode>
                <feMergeNode in="SourceGraphic"></feMergeNode>
            </feMerge>
        </filter>
        <filter id="filter-7">
            <feColorMatrix in="SourceGraphic" type="matrix" values="0 0 0 0 0.182857 0 0 0 0 0.540304 0 0 0 0 0.773834 0 0 0 1.000000 0"></feColorMatrix>
        </filter>
        <linearGradient x1="58.9295419%" y1="43.8793102%" x2="57.1561754%" y2="53.3948324%" id="linearGradient-8">
            <stop stop-color="#00FCFF" stop-opacity="0.524654665" offset="0%"></stop>
            <stop stop-color="#00F8FF" stop-opacity="0" offset="100%"></stop>
        </linearGradient>
        <filter x="-16.0%" y="-61.6%" width="132.1%" height="223.2%" filterUnits="objectBoundingBox" id="filter-9">
            <feGaussianBlur stdDeviation="3.98995536" in="SourceGraphic"></feGaussianBlur>
        </filter>
        <filter x="-16.0%" y="-61.6%" width="132.1%" height="223.2%" filterUnits="objectBoundingBox" id="filter-10">
            <feGaussianBlur stdDeviation="3.98995536" in="SourceGraphic"></feGaussianBlur>
        </filter>
        <linearGradient x1="0%" y1="50.1338314%" x2="100%" y2="50.0672627%" id="linearGradient-11">
            <stop stop-color="#00F8FF" stop-opacity="0" offset="0%"></stop>
            <stop stop-color="#00F8FF" offset="57.7560387%"></stop>
            <stop stop-color="#00F8FF" stop-opacity="0.5" offset="64.788226%"></stop>
            <stop stop-color="#00F8FF" offset="71.3063951%"></stop>
            <stop stop-color="#00F8FF" stop-opacity="0.299733922" offset="81.0312631%"></stop>
            <stop stop-color="#00F8FF" stop-opacity="0.3" offset="100%"></stop>
        </linearGradient>
        <path d="M207.889785,10.2365591 C208.899338,10.2365591 209.717742,11.0549634 209.717742,12.0645161 C209.717742,13.0740689 208.899338,13.8924731 207.889785,13.8924731 C206.880232,13.8924731 206.061828,13.0740689 206.061828,12.0645161 C206.061828,11.0549634 206.880232,10.2365591 207.889785,10.2365591 Z" id="path-12"></path>
        <filter x="-273.5%" y="-273.5%" width="647.1%" height="647.1%" filterUnits="objectBoundingBox" id="filter-13">
            <feGaussianBlur stdDeviation="0" in="SourceGraphic"></feGaussianBlur>
        </filter>
        <filter x="-410.3%" y="-410.3%" width="920.6%" height="920.6%" filterUnits="objectBoundingBox" id="filter-14">
            <feOffset dx="0" dy="0" in="SourceAlpha" result="shadowOffsetOuter1"></feOffset>
            <feGaussianBlur stdDeviation="5" in="shadowOffsetOuter1" result="shadowBlurOuter1"></feGaussianBlur>
            <feComposite in="shadowBlurOuter1" in2="SourceAlpha" operator="out" result="shadowBlurOuter1"></feComposite>
            <feColorMatrix values="0 0 0 0 0   0 0 0 0 0.97254902   0 0 0 0 1  0 0 0 0.6 0" type="matrix" in="shadowBlurOuter1"></feColorMatrix>
        </filter>
        <path d="M191.435891,9.41409253 L195.096367,9.23106876 C196.055505,9.18311186 196.871917,9.92177017 196.919874,10.8809083 C196.92132,10.9098302 196.922043,10.9387838 196.922043,10.9677419 C196.922043,11.9917334 196.119081,12.835847 195.096367,12.8869827 L191.435891,13.0700065 C190.476753,13.1179634 189.660341,12.3793051 189.612385,11.420167 C189.610938,11.391245 189.610215,11.3622914 189.610215,11.3333333 C189.610215,10.3093418 190.413177,9.46522822 191.435891,9.41409253 Z" id="path-15"></path>
        <filter x="-136.8%" y="-246.4%" width="373.5%" height="592.9%" filterUnits="objectBoundingBox" id="filter-16">
            <feGaussianBlur stdDeviation="0" in="SourceGraphic"></feGaussianBlur>
        </filter>
        <filter x="-205.1%" y="-370.8%" width="510.3%" height="841.6%" filterUnits="objectBoundingBox" id="filter-17">
            <feOffset dx="0" dy="0" in="SourceAlpha" result="shadowOffsetOuter1"></feOffset>
            <feGaussianBlur stdDeviation="5" in="shadowOffsetOuter1" result="shadowBlurOuter1"></feGaussianBlur>
            <feComposite in="shadowBlurOuter1" in2="SourceAlpha" operator="out" result="shadowBlurOuter1"></feComposite>
            <feColorMatrix values="0 0 0 0 0   0 0 0 0 0.97254902   0 0 0 0 1  0 0 0 0.6 0" type="matrix" in="shadowBlurOuter1"></feColorMatrix>
        </filter>
        <path d="M174.984278,10.1452753 L178.644754,9.96225156 C179.603892,9.91429465 180.420304,10.652953 180.468261,11.6120911 C180.469707,11.641013 180.47043,11.6699666 180.47043,11.6989247 C180.47043,12.7229162 179.667468,13.5670298 178.644754,13.6181655 L174.984278,13.8011893 C174.02514,13.8491462 173.208729,13.1104879 173.160772,12.1513498 C173.159326,12.1224278 173.158602,12.0934742 173.158602,12.0645161 C173.158602,11.0405246 173.961565,10.196411 174.984278,10.1452753 Z" id="path-18"></path>
        <filter x="-136.8%" y="-246.4%" width="373.5%" height="592.9%" filterUnits="objectBoundingBox" id="filter-19">
            <feGaussianBlur stdDeviation="0" in="SourceGraphic"></feGaussianBlur>
        </filter>
        <filter x="-205.1%" y="-370.8%" width="510.3%" height="841.6%" filterUnits="objectBoundingBox" id="filter-20">
            <feOffset dx="0" dy="0" in="SourceAlpha" result="shadowOffsetOuter1"></feOffset>
            <feGaussianBlur stdDeviation="5" in="shadowOffsetOuter1" result="shadowBlurOuter1"></feGaussianBlur>
            <feComposite in="shadowBlurOuter1" in2="SourceAlpha" operator="out" result="shadowBlurOuter1"></feComposite>
            <feColorMatrix values="0 0 0 0 0   0 0 0 0 0.97254902   0 0 0 0 1  0 0 0 0.6 0" type="matrix" in="shadowBlurOuter1"></feColorMatrix>
        </filter>
        <path d="M207.889785,10.2365591 C208.899338,10.2365591 209.717742,11.0549634 209.717742,12.0645161 C209.717742,13.0740689 208.899338,13.8924731 207.889785,13.8924731 C206.880232,13.8924731 206.061828,13.0740689 206.061828,12.0645161 C206.061828,11.0549634 206.880232,10.2365591 207.889785,10.2365591 Z" id="path-21"></path>
        <filter x="-273.5%" y="-273.5%" width="647.1%" height="647.1%" filterUnits="objectBoundingBox" id="filter-22">
            <feGaussianBlur stdDeviation="0" in="SourceGraphic"></feGaussianBlur>
        </filter>
        <filter x="-410.3%" y="-410.3%" width="920.6%" height="920.6%" filterUnits="objectBoundingBox" id="filter-23">
            <feOffset dx="0" dy="0" in="SourceAlpha" result="shadowOffsetOuter1"></feOffset>
            <feGaussianBlur stdDeviation="5" in="shadowOffsetOuter1" result="shadowBlurOuter1"></feGaussianBlur>
            <feComposite in="shadowBlurOuter1" in2="SourceAlpha" operator="out" result="shadowBlurOuter1"></feComposite>
            <feColorMatrix values="0 0 0 0 0   0 0 0 0 0.97254902   0 0 0 0 1  0 0 0 0.6 0" type="matrix" in="shadowBlurOuter1"></feColorMatrix>
        </filter>
        <path d="M191.435891,9.41409253 L195.096367,9.23106876 C196.055505,9.18311186 196.871917,9.92177017 196.919874,10.8809083 C196.92132,10.9098302 196.922043,10.9387838 196.922043,10.9677419 C196.922043,11.9917334 196.119081,12.835847 195.096367,12.8869827 L191.435891,13.0700065 C190.476753,13.1179634 189.660341,12.3793051 189.612385,11.420167 C189.610938,11.391245 189.610215,11.3622914 189.610215,11.3333333 C189.610215,10.3093418 190.413177,9.46522822 191.435891,9.41409253 Z" id="path-24"></path>
        <filter x="-136.8%" y="-246.4%" width="373.5%" height="592.9%" filterUnits="objectBoundingBox" id="filter-25">
            <feGaussianBlur stdDeviation="0" in="SourceGraphic"></feGaussianBlur>
        </filter>
        <filter x="-205.1%" y="-370.8%" width="510.3%" height="841.6%" filterUnits="objectBoundingBox" id="filter-26">
            <feOffset dx="0" dy="0" in="SourceAlpha" result="shadowOffsetOuter1"></feOffset>
            <feGaussianBlur stdDeviation="5" in="shadowOffsetOuter1" result="shadowBlurOuter1"></feGaussianBlur>
            <feComposite in="shadowBlurOuter1" in2="SourceAlpha" operator="out" result="shadowBlurOuter1"></feComposite>
            <feColorMatrix values="0 0 0 0 0   0 0 0 0 0.97254902   0 0 0 0 1  0 0 0 0.6 0" type="matrix" in="shadowBlurOuter1"></feColorMatrix>
        </filter>
        <path d="M174.984278,10.1452753 L178.644754,9.96225156 C179.603892,9.91429465 180.420304,10.652953 180.468261,11.6120911 C180.469707,11.641013 180.47043,11.6699666 180.47043,11.6989247 C180.47043,12.7229162 179.667468,13.5670298 178.644754,13.6181655 L174.984278,13.8011893 C174.02514,13.8491462 173.208729,13.1104879 173.160772,12.1513498 C173.159326,12.1224278 173.158602,12.0934742 173.158602,12.0645161 C173.158602,11.0405246 173.961565,10.196411 174.984278,10.1452753 Z" id="path-27"></path>
        <filter x="-136.8%" y="-246.4%" width="373.5%" height="592.9%" filterUnits="objectBoundingBox" id="filter-28">
            <feGaussianBlur stdDeviation="0" in="SourceGraphic"></feGaussianBlur>
        </filter>
        <filter x="-205.1%" y="-370.8%" width="510.3%" height="841.6%" filterUnits="objectBoundingBox" id="filter-29">
            <feOffset dx="0" dy="0" in="SourceAlpha" result="shadowOffsetOuter1"></feOffset>
            <feGaussianBlur stdDeviation="5" in="shadowOffsetOuter1" result="shadowBlurOuter1"></feGaussianBlur>
            <feComposite in="shadowBlurOuter1" in2="SourceAlpha" operator="out" result="shadowBlurOuter1"></feComposite>
            <feColorMatrix values="0 0 0 0 0   0 0 0 0 0.97254902   0 0 0 0 1  0 0 0 0.6 0" type="matrix" in="shadowBlurOuter1"></feColorMatrix>
        </filter>
        <filter id="filter-30">
            <feColorMatrix in="SourceGraphic" type="matrix" values="0 0 0 0 0.182857 0 0 0 0 0.540304 0 0 0 0 0.773834 0 0 0 1.000000 0"></feColorMatrix>
        </filter>
        <linearGradient x1="58.9295419%" y1="43.8793102%" x2="57.1561754%" y2="53.3948324%" id="linearGradient-31">
            <stop stop-color="#0028FF" stop-opacity="0.524654665" offset="0%"></stop>
            <stop stop-color="#00F8FF" stop-opacity="0" offset="100%"></stop>
        </linearGradient>
        <filter x="-16.0%" y="-61.6%" width="132.1%" height="223.2%" filterUnits="objectBoundingBox" id="filter-32">
            <feGaussianBlur stdDeviation="3.98995536" in="SourceGraphic"></feGaussianBlur>
        </filter>
        <filter x="-16.0%" y="-61.6%" width="132.1%" height="223.2%" filterUnits="objectBoundingBox" id="filter-33">
            <feGaussianBlur stdDeviation="3.98995536" in="SourceGraphic"></feGaussianBlur>
        </filter>
        <linearGradient x1="0%" y1="50.1395869%" x2="100%" y2="50.0701553%" id="linearGradient-34">
            <stop stop-color="#00F8FF" stop-opacity="0" offset="0%"></stop>
            <stop stop-color="#00F8FF" offset="57.7560387%"></stop>
            <stop stop-color="#00F8FF" stop-opacity="0.5" offset="64.788226%"></stop>
            <stop stop-color="#00F8FF" offset="71.3063951%"></stop>
            <stop stop-color="#00F8FF" stop-opacity="0.299733922" offset="81.0312631%"></stop>
            <stop stop-color="#00F8FF" stop-opacity="0.3" offset="100%"></stop>
        </linearGradient>
        <linearGradient x1="0%" y1="50.1457219%" x2="100%" y2="50.0732387%" id="linearGradient-35">
            <stop stop-color="#00F8FF" stop-opacity="0" offset="0%"></stop>
            <stop stop-color="#00F8FF" offset="57.7560387%"></stop>
            <stop stop-color="#00F8FF" stop-opacity="0.5" offset="64.788226%"></stop>
            <stop stop-color="#00F8FF" offset="71.3063951%"></stop>
            <stop stop-color="#00F8FF" stop-opacity="0.299733922" offset="81.0312631%"></stop>
            <stop stop-color="#00F8FF" stop-opacity="0.3" offset="100%"></stop>
        </linearGradient>
        <linearGradient x1="0%" y1="50.1522704%" x2="100%" y2="50.07653%" id="linearGradient-36">
            <stop stop-color="#00F8FF" stop-opacity="0" offset="0%"></stop>
            <stop stop-color="#00F8FF" offset="57.7560387%"></stop>
            <stop stop-color="#00F8FF" stop-opacity="0.5" offset="64.788226%"></stop>
            <stop stop-color="#00F8FF" offset="71.3063951%"></stop>
            <stop stop-color="#00F8FF" stop-opacity="0.299733922" offset="81.0312631%"></stop>
            <stop stop-color="#00F8FF" stop-opacity="0.3" offset="100%"></stop>
        </linearGradient>
        <path d="M471.744624,10.2365591 C472.754176,10.2365591 473.572581,11.0549634 473.572581,12.0645161 C473.572581,13.0740689 472.754176,13.8924731 471.744624,13.8924731 C470.735071,13.8924731 469.916667,13.0740689 469.916667,12.0645161 C469.916667,11.0549634 470.735071,10.2365591 471.744624,10.2365591 Z" id="path-37"></path>
        <filter x="-273.5%" y="-273.5%" width="647.1%" height="647.1%" filterUnits="objectBoundingBox" id="filter-38">
            <feGaussianBlur stdDeviation="0" in="SourceGraphic"></feGaussianBlur>
        </filter>
        <filter x="-410.3%" y="-410.3%" width="920.6%" height="920.6%" filterUnits="objectBoundingBox" id="filter-39">
            <feOffset dx="0" dy="0" in="SourceAlpha" result="shadowOffsetOuter1"></feOffset>
            <feGaussianBlur stdDeviation="5" in="shadowOffsetOuter1" result="shadowBlurOuter1"></feGaussianBlur>
            <feComposite in="shadowBlurOuter1" in2="SourceAlpha" operator="out" result="shadowBlurOuter1"></feComposite>
            <feColorMatrix values="0 0 0 0 0   0 0 0 0 0.97254902   0 0 0 0 1  0 0 0 0.6 0" type="matrix" in="shadowBlurOuter1"></feColorMatrix>
        </filter>
        <path d="M484.538042,9.59666016 L488.198517,9.77968393 C489.221231,9.83081962 490.024194,10.6749332 490.024194,11.6989247 C490.024194,12.659261 489.245687,13.4377674 488.285351,13.4377674 C488.256393,13.4377674 488.227439,13.437044 488.198517,13.4355979 L484.538042,13.2525741 C483.515328,13.2014384 482.712366,12.3573248 482.712366,11.3333333 C482.712366,10.3729971 483.490872,9.59449067 484.451208,9.59449067 C484.480166,9.59449067 484.50912,9.59521406 484.538042,9.59666016 Z" id="path-40"></path>
        <filter x="-136.8%" y="-246.4%" width="373.5%" height="592.9%" filterUnits="objectBoundingBox" id="filter-41">
            <feGaussianBlur stdDeviation="0" in="SourceGraphic"></feGaussianBlur>
        </filter>
        <filter x="-205.1%" y="-370.8%" width="510.3%" height="841.6%" filterUnits="objectBoundingBox" id="filter-42">
            <feOffset dx="0" dy="0" in="SourceAlpha" result="shadowOffsetOuter1"></feOffset>
            <feGaussianBlur stdDeviation="5" in="shadowOffsetOuter1" result="shadowBlurOuter1"></feGaussianBlur>
            <feComposite in="shadowBlurOuter1" in2="SourceAlpha" operator="out" result="shadowBlurOuter1"></feComposite>
            <feColorMatrix values="0 0 0 0 0   0 0 0 0 0.97254902   0 0 0 0 1  0 0 0 0.6 0" type="matrix" in="shadowBlurOuter1"></feColorMatrix>
        </filter>
        <path d="M500.989655,9.96225156 L504.65013,10.1452753 C505.672844,10.196411 506.475806,11.0405246 506.475806,12.0645161 C506.475806,13.0248524 505.6973,13.8033588 504.736964,13.8033588 C504.708006,13.8033588 504.679052,13.8026354 504.65013,13.8011893 L500.989655,13.6181655 C499.966941,13.5670298 499.163978,12.7229162 499.163978,11.6989247 C499.163978,10.7385884 499.942485,9.96008207 500.902821,9.96008207 C500.931779,9.96008207 500.960733,9.96080546 500.989655,9.96225156 Z" id="path-43"></path>
        <filter x="-136.8%" y="-246.4%" width="373.5%" height="592.9%" filterUnits="objectBoundingBox" id="filter-44">
            <feGaussianBlur stdDeviation="0" in="SourceGraphic"></feGaussianBlur>
        </filter>
        <filter x="-205.1%" y="-370.8%" width="510.3%" height="841.6%" filterUnits="objectBoundingBox" id="filter-45">
            <feOffset dx="0" dy="0" in="SourceAlpha" result="shadowOffsetOuter1"></feOffset>
            <feGaussianBlur stdDeviation="5" in="shadowOffsetOuter1" result="shadowBlurOuter1"></feGaussianBlur>
            <feComposite in="shadowBlurOuter1" in2="SourceAlpha" operator="out" result="shadowBlurOuter1"></feComposite>
            <feColorMatrix values="0 0 0 0 0   0 0 0 0 0.97254902   0 0 0 0 1  0 0 0 0.6 0" type="matrix" in="shadowBlurOuter1"></feColorMatrix>
        </filter>
        <path d="M471.744624,10.2365591 C472.754176,10.2365591 473.572581,11.0549634 473.572581,12.0645161 C473.572581,13.0740689 472.754176,13.8924731 471.744624,13.8924731 C470.735071,13.8924731 469.916667,13.0740689 469.916667,12.0645161 C469.916667,11.0549634 470.735071,10.2365591 471.744624,10.2365591 Z" id="path-46"></path>
        <filter x="-273.5%" y="-273.5%" width="647.1%" height="647.1%" filterUnits="objectBoundingBox" id="filter-47">
            <feGaussianBlur stdDeviation="0" in="SourceGraphic"></feGaussianBlur>
        </filter>
        <filter x="-410.3%" y="-410.3%" width="920.6%" height="920.6%" filterUnits="objectBoundingBox" id="filter-48">
            <feOffset dx="0" dy="0" in="SourceAlpha" result="shadowOffsetOuter1"></feOffset>
            <feGaussianBlur stdDeviation="5" in="shadowOffsetOuter1" result="shadowBlurOuter1"></feGaussianBlur>
            <feComposite in="shadowBlurOuter1" in2="SourceAlpha" operator="out" result="shadowBlurOuter1"></feComposite>
            <feColorMatrix values="0 0 0 0 0   0 0 0 0 0.97254902   0 0 0 0 1  0 0 0 0.6 0" type="matrix" in="shadowBlurOuter1"></feColorMatrix>
        </filter>
        <path d="M484.538042,9.59666016 L488.198517,9.77968393 C489.221231,9.83081962 490.024194,10.6749332 490.024194,11.6989247 C490.024194,12.659261 489.245687,13.4377674 488.285351,13.4377674 C488.256393,13.4377674 488.227439,13.437044 488.198517,13.4355979 L484.538042,13.2525741 C483.515328,13.2014384 482.712366,12.3573248 482.712366,11.3333333 C482.712366,10.3729971 483.490872,9.59449067 484.451208,9.59449067 C484.480166,9.59449067 484.50912,9.59521406 484.538042,9.59666016 Z" id="path-49"></path>
        <filter x="-136.8%" y="-246.4%" width="373.5%" height="592.9%" filterUnits="objectBoundingBox" id="filter-50">
            <feGaussianBlur stdDeviation="0" in="SourceGraphic"></feGaussianBlur>
        </filter>
        <filter x="-205.1%" y="-370.8%" width="510.3%" height="841.6%" filterUnits="objectBoundingBox" id="filter-51">
            <feOffset dx="0" dy="0" in="SourceAlpha" result="shadowOffsetOuter1"></feOffset>
            <feGaussianBlur stdDeviation="5" in="shadowOffsetOuter1" result="shadowBlurOuter1"></feGaussianBlur>
            <feComposite in="shadowBlurOuter1" in2="SourceAlpha" operator="out" result="shadowBlurOuter1"></feComposite>
            <feColorMatrix values="0 0 0 0 0   0 0 0 0 0.97254902   0 0 0 0 1  0 0 0 0.6 0" type="matrix" in="shadowBlurOuter1"></feColorMatrix>
        </filter>
        <path d="M500.989655,9.96225156 L504.65013,10.1452753 C505.672844,10.196411 506.475806,11.0405246 506.475806,12.0645161 C506.475806,13.0248524 505.6973,13.8033588 504.736964,13.8033588 C504.708006,13.8033588 504.679052,13.8026354 504.65013,13.8011893 L500.989655,13.6181655 C499.966941,13.5670298 499.163978,12.7229162 499.163978,11.6989247 C499.163978,10.7385884 499.942485,9.96008207 500.902821,9.96008207 C500.931779,9.96008207 500.960733,9.96080546 500.989655,9.96225156 Z" id="path-52"></path>
        <filter x="-136.8%" y="-246.4%" width="373.5%" height="592.9%" filterUnits="objectBoundingBox" id="filter-53">
            <feGaussianBlur stdDeviation="0" in="SourceGraphic"></feGaussianBlur>
        </filter>
        <filter x="-205.1%" y="-370.8%" width="510.3%" height="841.6%" filterUnits="objectBoundingBox" id="filter-54">
            <feOffset dx="0" dy="0" in="SourceAlpha" result="shadowOffsetOuter1"></feOffset>
            <feGaussianBlur stdDeviation="5" in="shadowOffsetOuter1" result="shadowBlurOuter1"></feGaussianBlur>
            <feComposite in="shadowBlurOuter1" in2="SourceAlpha" operator="out" result="shadowBlurOuter1"></feComposite>
            <feColorMatrix values="0 0 0 0 0   0 0 0 0 0.97254902   0 0 0 0 1  0 0 0 0.6 0" type="matrix" in="shadowBlurOuter1"></feColorMatrix>
        </filter>
        <linearGradient x1="100%" y1="50%" x2="0%" y2="50%" id="linearGradient-55">
            <stop stop-color="#66E5FF" stop-opacity="0" offset="0%"></stop>
            <stop stop-color="#80DDFF" offset="49.7471098%"></stop>
            <stop stop-color="#66E5FF" stop-opacity="0" offset="100%"></stop>
        </linearGradient>
        <linearGradient x1="100%" y1="50%" x2="0%" y2="50%" id="linearGradient-56">
            <stop stop-color="#66E5FF" stop-opacity="0" offset="0%"></stop>
            <stop stop-color="#80DDFF" offset="49.7471098%"></stop>
            <stop stop-color="#66E5FF" stop-opacity="0" offset="100%"></stop>
        </linearGradient>
        <polygon id="path-57" points="284.041667 30.4583333 395.958333 30.4583333 395.958333 32.2291667 284.041667 32.2291667"></polygon>
        <filter x="-21.0%" y="-1609.4%" width="142.0%" height="2754.1%" filterUnits="objectBoundingBox" id="filter-58">
            <feOffset dx="0" dy="-5" in="SourceAlpha" result="shadowOffsetOuter1"></feOffset>
            <feGaussianBlur stdDeviation="7" in="shadowOffsetOuter1" result="shadowBlurOuter1"></feGaussianBlur>
            <feColorMatrix values="0 0 0 0 0   0 0 0 0 0.971973339   0 0 0 0 1  0 0 0 0.5 0" type="matrix" in="shadowBlurOuter1"></feColorMatrix>
        </filter>
    </defs>
    <g id="页面-1" stroke="none" stroke-width="1" fill="none" fill-rule="evenodd">
        <g id="预览效果图" transform="translate(-28.000000, -455.000000)">
            <g id="编组-50备份-3" transform="translate(61.000000, 488.682500)">
                <g id="编组-49">
                    <path d="M0,0 L680,0 C680,15.2568662 667.631866,27.625 652.375,27.625 L443.520833,27.625 L443.520833,27.625 L422.662503,30.333874 C418.391961,30.88849 414.090051,31.1666667 409.783645,31.1666667 L270.216355,31.1666667 C265.909949,31.1666667 261.608039,30.88849 257.337497,30.333874 L236.479167,27.625 L236.479167,27.625 L27.625,27.625 C12.3681338,27.625 8.31733432e-14,15.2568662 0,0 L0,0 L0,0 Z" id="矩形" fill="url(#linearGradient-1)"></path>
                    <g id="矩形备份" opacity="0.800000012">
                        <use fill="black" fill-opacity="1" filter="url(#filter-4)" xlink:href="#path-3"></use>
                        <use fill="url(#linearGradient-2)" fill-rule="evenodd" xlink:href="#path-3"></use>
                    </g>
                    <g filter="url(#filter-5)" id="编组备份-3">
                        <g filter="url(#filter-6)">
                            <g filter="url(#filter-7)" id="标题框备份-4">
                                <g>
                                    <path d="M185.634409,1.78031515 C185.634409,1.78031515 209.197797,0 224.741204,0 C240.28461,0 253.5369,15.7115415 260.215054,19.4334677 C250.523656,10.215815 240.06906,4.99852457 228.851265,3.78159646 C212.024572,1.9562043 185.634409,1.78031515 185.634409,1.78031515 Z" id="Path-2" fill="url(#linearGradient-8)" filter="url(#filter-9)"></path>
                                    <path d="M419.784946,1.78031515 C419.784946,1.78031515 443.348335,0 458.891741,0 C474.435148,0 487.687438,15.7115415 494.365591,19.4334677 C484.674194,10.215815 474.219598,4.99852457 463.001803,3.78159646 C446.17511,1.9562043 419.784946,1.78031515 419.784946,1.78031515 Z" id="Path-2-Copy" fill="url(#linearGradient-8)" filter="url(#filter-10)" transform="translate(457.075269, 9.716734) scale(-1, 1) translate(-457.075269, -9.716734) "></path>
                                    <path d="M0,0.731182796 C123.125068,0.731182796 196.825493,0.731182796 221.101273,0.731182796 C257.514944,0.731182796 256.236707,30.9610215 286.371386,30.9610215 C306.461172,30.9610215 324.337376,30.9610215 340,30.9610215" id="Path-2" stroke="url(#linearGradient-11)"></path>
                                    <path d="M340,0.731182796 C463.125068,0.731182796 536.825493,0.731182796 561.101273,0.731182796 C597.514944,0.731182796 596.236707,30.9610215 626.371386,30.9610215 C646.461172,30.9610215 664.337376,30.9610215 680,30.9610215" id="Path-2-Copy-2" stroke="url(#linearGradient-11)" transform="translate(510.000000, 15.846102) scale(-1, 1) translate(-510.000000, -15.846102) "></path>
                                    <g id="Rectangle-2" filter="url(#filter-13)">
                                        <use fill="black" fill-opacity="1" filter="url(#filter-14)" xlink:href="#path-12"></use>
                                        <use fill-opacity="0.7" fill="#00F8FF" fill-rule="evenodd" xlink:href="#path-12"></use>
                                    </g>
                                    <g id="Rectangle-2-Copy" filter="url(#filter-16)">
                                        <use fill="black" fill-opacity="1" filter="url(#filter-17)" xlink:href="#path-15"></use>
                                        <use fill-opacity="0.5" fill="#00F8FF" fill-rule="evenodd" xlink:href="#path-15"></use>
                                    </g>
                                    <g id="Rectangle-2-Copy-4" filter="url(#filter-19)">
                                        <use fill="black" fill-opacity="1" filter="url(#filter-20)" xlink:href="#path-18"></use>
                                        <use fill-opacity="0.5" fill="#00F8FF" fill-rule="evenodd" xlink:href="#path-18"></use>
                                    </g>
                                    <g id="Rectangle-2备份" filter="url(#filter-22)">
                                        <use fill="black" fill-opacity="1" filter="url(#filter-23)" xlink:href="#path-21"></use>
                                        <use fill-opacity="0.7" fill="#FFFFFF" fill-rule="evenodd" xlink:href="#path-21"></use>
                                    </g>
                                    <g id="Rectangle-2-Copy备份" filter="url(#filter-25)">
                                        <use fill="black" fill-opacity="1" filter="url(#filter-26)" xlink:href="#path-24"></use>
                                        <use fill-opacity="0.5" fill="#00F8FF" fill-rule="evenodd" xlink:href="#path-24"></use>
                                    </g>
                                    <g id="Rectangle-2-Copy-4备份" filter="url(#filter-28)">
                                        <use fill="black" fill-opacity="1" filter="url(#filter-29)" xlink:href="#path-27"></use>
                                        <use fill-opacity="0.5" fill="#00F8FF" fill-rule="evenodd" xlink:href="#path-27"></use>
                                    </g>
                                </g>
                            </g>
                            <g filter="url(#filter-30)" id="标题框备份-5">
                                <g>
                                    <path d="M185.634409,1.78031515 C185.634409,1.78031515 209.197797,0 224.741204,0 C240.28461,0 253.5369,15.7115415 260.215054,19.4334677 C250.523656,10.215815 240.06906,4.99852457 228.851265,3.78159646 C212.024572,1.9562043 185.634409,1.78031515 185.634409,1.78031515 Z" id="Path-2" fill="url(#linearGradient-31)" filter="url(#filter-32)"></path>
                                    <path d="M419.784946,1.78031515 C419.784946,1.78031515 443.348335,0 458.891741,0 C474.435148,0 487.687438,15.7115415 494.365591,19.4334677 C484.674194,10.215815 474.219598,4.99852457 463.001803,3.78159646 C446.17511,1.9562043 419.784946,1.78031515 419.784946,1.78031515 Z" id="Path-2-Copy" fill="url(#linearGradient-31)" filter="url(#filter-33)" transform="translate(457.075269, 9.716734) scale(-1, 1) translate(-457.075269, -9.716734) "></path>
                                    <path d="M0,0.731182796 C123.125068,0.731182796 196.825493,0.731182796 221.101273,0.731182796 C257.514944,0.731182796 256.236707,30.9610215 286.371386,30.9610215 C306.461172,30.9610215 324.337376,30.9610215 340,30.9610215" id="Path-2" stroke="url(#linearGradient-11)" stroke-width="2"></path>
                                    <path d="M0,0.731182796 C118.402846,0.731182796 189.74216,0.731182796 214.01794,0.731182796 C250.431611,0.731182796 249.153373,30.9610215 279.288052,30.9610215 C299.377838,30.9610215 317.254043,30.9610215 332.916667,30.9610215" id="Path-2备份" stroke="url(#linearGradient-34)"></path>
                                    <path d="M0,0.731182796 C113.680624,0.731182796 182.658826,0.731182796 206.934607,0.731182796 C243.348277,0.731182796 242.07004,30.9610215 272.204719,30.9610215 C292.294505,30.9610215 310.17071,30.9610215 325.833333,30.9610215" id="Path-2备份-2" stroke="url(#linearGradient-35)"></path>
                                    <path d="M0,0.731182796 C108.958402,0.731182796 175.575493,0.731182796 199.851273,0.731182796 C236.264944,0.731182796 234.986707,30.9610215 265.121386,30.9610215 C285.211172,30.9610215 303.087376,30.9610215 318.75,30.9610215" id="Path-2备份-3" stroke="url(#linearGradient-36)"></path>
                                    <path d="M340,0.731182796 C463.125068,0.731182796 536.825493,0.731182796 561.101273,0.731182796 C597.514944,0.731182796 596.236707,30.9610215 626.371386,30.9610215 C646.461172,30.9610215 664.337376,30.9610215 680,30.9610215" id="Path-2-Copy-2" stroke="url(#linearGradient-11)" stroke-width="2" transform="translate(510.000000, 15.846102) scale(-1, 1) translate(-510.000000, -15.846102) "></path>
                                    <path d="M347.083333,0.731182796 C465.48618,0.731182796 536.825493,0.731182796 561.101273,0.731182796 C597.514944,0.731182796 596.236707,30.9610215 626.371386,30.9610215 C646.461172,30.9610215 664.337376,30.9610215 680,30.9610215" id="Path-2-Copy-2备份" stroke="url(#linearGradient-34)" transform="translate(513.541667, 15.846102) scale(-1, 1) translate(-513.541667, -15.846102) "></path>
                                    <path d="M354.166667,0.731182796 C467.847291,0.731182796 536.825493,0.731182796 561.101273,0.731182796 C597.514944,0.731182796 596.236707,30.9610215 626.371386,30.9610215 C646.461172,30.9610215 664.337376,30.9610215 680,30.9610215" id="Path-2-Copy-2备份-2" stroke="url(#linearGradient-35)" transform="translate(517.083333, 15.846102) scale(-1, 1) translate(-517.083333, -15.846102) "></path>
                                    <path d="M361.25,0.731182796 C470.208402,0.731182796 536.825493,0.731182796 561.101273,0.731182796 C597.514944,0.731182796 596.236707,30.9610215 626.371386,30.9610215 C646.461172,30.9610215 664.337376,30.9610215 680,30.9610215" id="Path-2-Copy-2备份-3" stroke="url(#linearGradient-36)" transform="translate(520.625000, 15.846102) scale(-1, 1) translate(-520.625000, -15.846102) "></path>
                                    <g id="Rectangle-2-Copy-2" filter="url(#filter-38)">
                                        <use fill="black" fill-opacity="1" filter="url(#filter-39)" xlink:href="#path-37"></use>
                                        <use fill-opacity="0.7" fill="#00F8FF" fill-rule="evenodd" xlink:href="#path-37"></use>
                                    </g>
                                    <g id="Rectangle-2-Copy-3" filter="url(#filter-41)">
                                        <use fill="black" fill-opacity="1" filter="url(#filter-42)" xlink:href="#path-40"></use>
                                        <use fill-opacity="0.5" fill="#00F8FF" fill-rule="evenodd" xlink:href="#path-40"></use>
                                    </g>
                                    <g id="Rectangle-2-Copy-5" filter="url(#filter-44)">
                                        <use fill="black" fill-opacity="1" filter="url(#filter-45)" xlink:href="#path-43"></use>
                                        <use fill-opacity="0.5" fill="#00F8FF" fill-rule="evenodd" xlink:href="#path-43"></use>
                                    </g>
                                    <g id="Rectangle-2-Copy-2备份" filter="url(#filter-47)">
                                        <use fill="black" fill-opacity="1" filter="url(#filter-48)" xlink:href="#path-46"></use>
                                        <use fill-opacity="0.7" fill="#00F8FF" fill-rule="evenodd" xlink:href="#path-46"></use>
                                    </g>
                                    <g id="Rectangle-2-Copy-3备份" filter="url(#filter-50)">
                                        <use fill="black" fill-opacity="1" filter="url(#filter-51)" xlink:href="#path-49"></use>
                                        <use fill-opacity="0.5" fill="#00F8FF" fill-rule="evenodd" xlink:href="#path-49"></use>
                                    </g>
                                    <g id="Rectangle-2-Copy-5备份" filter="url(#filter-53)">
                                        <use fill="black" fill-opacity="1" filter="url(#filter-54)" xlink:href="#path-52"></use>
                                        <use fill-opacity="0.5" fill="#00F8FF" fill-rule="evenodd" xlink:href="#path-52"></use>
                                    </g>
                                </g>
                            </g>
                        </g>
                    </g>
                </g>
                <polygon id="Rectangle-Copy" fill="url(#linearGradient-55)" fill-rule="nonzero" points="260.916667 30.4583333 419.083333 30.4583333 419.083333 32.2291667 260.916667 32.2291667"></polygon>
                <g id="Rectangle-Copy备份" fill-rule="nonzero">
                    <use fill="black" fill-opacity="1" filter="url(#filter-58)" xlink:href="#path-57"></use>
                    <use fill="url(#linearGradient-56)" xlink:href="#path-57"></use>
                </g>
            </g>
        </g>
    </g>
</svg>