<?xml version="1.0" encoding="UTF-8"?>
<svg width="680px" height="28px" viewBox="0 0 680 28" version="1.1" xmlns="http://www.w3.org/2000/svg" xmlns:xlink="http://www.w3.org/1999/xlink">
    <title>标题背景</title>
    <defs>
        <linearGradient x1="50%" y1="0%" x2="50%" y2="100%" id="linearGradient-1">
            <stop stop-color="#5FC6FF" stop-opacity="0" offset="0%"></stop>
            <stop stop-color="#5FC6FF" stop-opacity="0.6" offset="100%"></stop>
        </linearGradient>
        <linearGradient x1="50%" y1="100%" x2="50%" y2="3.061617e-15%" id="linearGradient-2">
            <stop stop-color="#5FC6FF" stop-opacity="0" offset="0%"></stop>
            <stop stop-color="#5FC6FF" stop-opacity="0.15" offset="100%"></stop>
        </linearGradient>
        <linearGradient x1="61.5606108%" y1="39.9286013%" x2="-2.22044605e-14%" y2="50%" id="linearGradient-3">
            <stop stop-color="#5FC6FF" stop-opacity="0" offset="0%"></stop>
            <stop stop-color="#5FC6FF" stop-opacity="0.15" offset="100%"></stop>
        </linearGradient>
        <linearGradient x1="60.7032898%" y1="42.5868357%" x2="21.8690773%" y2="61.233921%" id="linearGradient-4">
            <stop stop-color="#5FC6FF" stop-opacity="0" offset="0%"></stop>
            <stop stop-color="#5FC6FF" stop-opacity="0.201086957" offset="100%"></stop>
        </linearGradient>
        <linearGradient x1="61.5606108%" y1="40.2345499%" x2="-2.22044605e-14%" y2="50%" id="linearGradient-5">
            <stop stop-color="#5FC6FF" stop-opacity="0" offset="0%"></stop>
            <stop stop-color="#5FC6FF" stop-opacity="0.15" offset="100%"></stop>
        </linearGradient>
        <linearGradient x1="60.7032898%" y1="42.8120326%" x2="21.8690773%" y2="60.8926574%" id="linearGradient-6">
            <stop stop-color="#5FC6FF" stop-opacity="0" offset="0%"></stop>
            <stop stop-color="#5FC6FF" stop-opacity="0.201086957" offset="100%"></stop>
        </linearGradient>
        <rect id="path-7" x="56.9826262" y="1.38307345" width="9.95812884" height="1"></rect>
        <filter x="-75.3%" y="-903.8%" width="250.6%" height="1907.6%" filterUnits="objectBoundingBox" id="filter-8">
            <feOffset dx="0" dy="0" in="SourceAlpha" result="shadowOffsetOuter1"></feOffset>
            <feGaussianBlur stdDeviation="2.5" in="shadowOffsetOuter1" result="shadowBlurOuter1"></feGaussianBlur>
            <feColorMatrix values="0 0 0 0 0   0 0 0 0 0.666666667   0 0 0 0 1  0 0 0 1 0" type="matrix" in="shadowBlurOuter1"></feColorMatrix>
        </filter>
        <rect id="path-9" x="91.2828477" y="1.38307345" width="3.31937628" height="1"></rect>
        <filter x="-225.9%" y="-903.8%" width="551.9%" height="1907.6%" filterUnits="objectBoundingBox" id="filter-10">
            <feOffset dx="0" dy="0" in="SourceAlpha" result="shadowOffsetOuter1"></feOffset>
            <feGaussianBlur stdDeviation="2.5" in="shadowOffsetOuter1" result="shadowBlurOuter1"></feGaussianBlur>
            <feColorMatrix values="0 0 0 0 0   0 0 0 0 0.666666667   0 0 0 0 1  0 0 0 1 0" type="matrix" in="shadowBlurOuter1"></feColorMatrix>
        </filter>
        <rect id="path-11" x="167.075273" y="2.48953221" width="9.95812884" height="1"></rect>
        <filter x="-75.3%" y="-2711.4%" width="250.6%" height="5522.7%" filterUnits="objectBoundingBox" id="filter-12">
            <feOffset dx="0" dy="0" in="SourceAlpha" result="shadowOffsetOuter1"></feOffset>
            <feGaussianBlur stdDeviation="2.5" in="shadowOffsetOuter1" result="shadowBlurOuter1"></feGaussianBlur>
            <feColorMatrix values="0 0 0 0 0   0 0 0 0 0.666666667   0 0 0 0 1  0 0 0 1 0" type="matrix" in="shadowBlurOuter1"></feColorMatrix>
        </filter>
        <linearGradient x1="50%" y1="0%" x2="50%" y2="100%" id="linearGradient-13">
            <stop stop-color="#00496E" offset="0%"></stop>
            <stop stop-color="#003D5C" offset="100%"></stop>
        </linearGradient>
        <linearGradient x1="50%" y1="0%" x2="50%" y2="100%" id="linearGradient-14">
            <stop stop-color="#00AAFF" stop-opacity="0" offset="0%"></stop>
            <stop stop-color="#00AAFF" stop-opacity="0.3" offset="100%"></stop>
        </linearGradient>
        <polygon id="path-15" points="2.35122487 0 18.8097989 0 21.5759458 2.7661469 18.8097989 5.5322938 3.18589687e-13 5.5322938"></polygon>
        <filter x="-13.9%" y="-54.2%" width="127.8%" height="208.5%" filterUnits="objectBoundingBox" id="filter-16">
            <feGaussianBlur stdDeviation="2.5" in="SourceAlpha" result="shadowBlurInner1"></feGaussianBlur>
            <feOffset dx="0" dy="-1" in="shadowBlurInner1" result="shadowOffsetInner1"></feOffset>
            <feComposite in="shadowOffsetInner1" in2="SourceAlpha" operator="arithmetic" k2="-1" k3="1" result="shadowInnerInner1"></feComposite>
            <feColorMatrix values="0 0 0 0 0   0 0 0 0 0.666666667   0 0 0 0 1  0 0 0 0.500983392 0" type="matrix" in="shadowInnerInner1"></feColorMatrix>
        </filter>
        <linearGradient x1="50%" y1="0%" x2="50%" y2="100%" id="linearGradient-17">
            <stop stop-color="#00AAFF" offset="0%"></stop>
            <stop stop-color="#00AAFF" stop-opacity="0" offset="100%"></stop>
        </linearGradient>
        <linearGradient x1="50%" y1="0%" x2="50%" y2="100%" id="linearGradient-18">
            <stop stop-color="#00AAFF" stop-opacity="0" offset="0%"></stop>
            <stop stop-color="#00AAFF" offset="100%"></stop>
        </linearGradient>
        <polygon id="path-19" points="2.35122487 0 18.8097989 0 21.5759458 2.7661469 18.8097989 5.5322938 3.18589687e-13 5.5322938"></polygon>
        <filter x="-13.9%" y="-54.2%" width="127.8%" height="208.5%" filterUnits="objectBoundingBox" id="filter-20">
            <feGaussianBlur stdDeviation="2.5" in="SourceAlpha" result="shadowBlurInner1"></feGaussianBlur>
            <feOffset dx="0" dy="-1" in="shadowBlurInner1" result="shadowOffsetInner1"></feOffset>
            <feComposite in="shadowOffsetInner1" in2="SourceAlpha" operator="arithmetic" k2="-1" k3="1" result="shadowInnerInner1"></feComposite>
            <feColorMatrix values="0 0 0 0 0   0 0 0 0 0.666666667   0 0 0 0 1  0 0 0 0.500983392 0" type="matrix" in="shadowInnerInner1"></feColorMatrix>
        </filter>
        <polygon id="path-21" points="6.36213787 2.48953221 14.6605786 2.48953221 14.6605786 3.04276159 6.36213787 3.04276159"></polygon>
        <filter x="-90.4%" y="-727.7%" width="280.8%" height="1555.3%" filterUnits="objectBoundingBox" id="filter-22">
            <feOffset dx="0" dy="0" in="SourceAlpha" result="shadowOffsetOuter1"></feOffset>
            <feGaussianBlur stdDeviation="2.5" in="shadowOffsetOuter1" result="shadowBlurOuter1"></feGaussianBlur>
            <feColorMatrix values="0 0 0 0 0   0 0 0 0 0.666666667   0 0 0 0 1  0 0 0 1 0" type="matrix" in="shadowBlurOuter1" result="shadowMatrixOuter1"></feColorMatrix>
            <feOffset dx="0" dy="0" in="SourceAlpha" result="shadowOffsetOuter2"></feOffset>
            <feGaussianBlur stdDeviation="2.5" in="shadowOffsetOuter2" result="shadowBlurOuter2"></feGaussianBlur>
            <feColorMatrix values="0 0 0 0 0   0 0 0 0 0.666666667   0 0 0 0 1  0 0 0 1 0" type="matrix" in="shadowBlurOuter2" result="shadowMatrixOuter2"></feColorMatrix>
            <feOffset dx="0" dy="0" in="SourceAlpha" result="shadowOffsetOuter3"></feOffset>
            <feGaussianBlur stdDeviation="2.5" in="shadowOffsetOuter3" result="shadowBlurOuter3"></feGaussianBlur>
            <feColorMatrix values="0 0 0 0 0   0 0 0 0 0.666666667   0 0 0 0 1  0 0 0 1 0" type="matrix" in="shadowBlurOuter3" result="shadowMatrixOuter3"></feColorMatrix>
            <feMerge>
                <feMergeNode in="shadowMatrixOuter1"></feMergeNode>
                <feMergeNode in="shadowMatrixOuter2"></feMergeNode>
                <feMergeNode in="shadowMatrixOuter3"></feMergeNode>
            </feMerge>
        </filter>
        <rect id="path-23" x="56.9826262" y="1.38307345" width="9.95812884" height="1"></rect>
        <filter x="-75.3%" y="-903.8%" width="250.6%" height="1907.6%" filterUnits="objectBoundingBox" id="filter-24">
            <feOffset dx="0" dy="0" in="SourceAlpha" result="shadowOffsetOuter1"></feOffset>
            <feGaussianBlur stdDeviation="2.5" in="shadowOffsetOuter1" result="shadowBlurOuter1"></feGaussianBlur>
            <feColorMatrix values="0 0 0 0 0   0 0 0 0 0.666666667   0 0 0 0 1  0 0 0 1 0" type="matrix" in="shadowBlurOuter1"></feColorMatrix>
        </filter>
        <rect id="path-25" x="91.2828477" y="1.38307345" width="3.31937628" height="1"></rect>
        <filter x="-225.9%" y="-903.8%" width="551.9%" height="1907.6%" filterUnits="objectBoundingBox" id="filter-26">
            <feOffset dx="0" dy="0" in="SourceAlpha" result="shadowOffsetOuter1"></feOffset>
            <feGaussianBlur stdDeviation="2.5" in="shadowOffsetOuter1" result="shadowBlurOuter1"></feGaussianBlur>
            <feColorMatrix values="0 0 0 0 0   0 0 0 0 0.666666667   0 0 0 0 1  0 0 0 1 0" type="matrix" in="shadowBlurOuter1"></feColorMatrix>
        </filter>
        <rect id="path-27" x="167.075273" y="2.48953221" width="9.95812884" height="1"></rect>
        <filter x="-75.3%" y="-2711.4%" width="250.6%" height="5522.7%" filterUnits="objectBoundingBox" id="filter-28">
            <feOffset dx="0" dy="0" in="SourceAlpha" result="shadowOffsetOuter1"></feOffset>
            <feGaussianBlur stdDeviation="2.5" in="shadowOffsetOuter1" result="shadowBlurOuter1"></feGaussianBlur>
            <feColorMatrix values="0 0 0 0 0   0 0 0 0 0.666666667   0 0 0 0 1  0 0 0 1 0" type="matrix" in="shadowBlurOuter1"></feColorMatrix>
        </filter>
        <polygon id="path-29" points="2.35122487 0 18.8097989 0 21.5759458 2.7661469 18.8097989 5.5322938 1.14261113e-12 5.5322938"></polygon>
        <filter x="-13.9%" y="-54.2%" width="127.8%" height="208.5%" filterUnits="objectBoundingBox" id="filter-30">
            <feGaussianBlur stdDeviation="2.5" in="SourceAlpha" result="shadowBlurInner1"></feGaussianBlur>
            <feOffset dx="0" dy="-1" in="shadowBlurInner1" result="shadowOffsetInner1"></feOffset>
            <feComposite in="shadowOffsetInner1" in2="SourceAlpha" operator="arithmetic" k2="-1" k3="1" result="shadowInnerInner1"></feComposite>
            <feColorMatrix values="0 0 0 0 0   0 0 0 0 0.666666667   0 0 0 0 1  0 0 0 0.500983392 0" type="matrix" in="shadowInnerInner1"></feColorMatrix>
        </filter>
        <polygon id="path-31" points="2.35122487 0 18.8097989 0 21.5759458 2.7661469 18.8097989 5.5322938 1.14261113e-12 5.5322938"></polygon>
        <filter x="-13.9%" y="-54.2%" width="127.8%" height="208.5%" filterUnits="objectBoundingBox" id="filter-32">
            <feGaussianBlur stdDeviation="2.5" in="SourceAlpha" result="shadowBlurInner1"></feGaussianBlur>
            <feOffset dx="0" dy="-1" in="shadowBlurInner1" result="shadowOffsetInner1"></feOffset>
            <feComposite in="shadowOffsetInner1" in2="SourceAlpha" operator="arithmetic" k2="-1" k3="1" result="shadowInnerInner1"></feComposite>
            <feColorMatrix values="0 0 0 0 0   0 0 0 0 0.666666667   0 0 0 0 1  0 0 0 0.500983392 0" type="matrix" in="shadowInnerInner1"></feColorMatrix>
        </filter>
        <polygon id="path-33" points="6.36213787 2.48953221 14.6605786 2.48953221 14.6605786 3.04276159 6.36213787 3.04276159"></polygon>
        <filter x="-90.4%" y="-727.7%" width="280.8%" height="1555.3%" filterUnits="objectBoundingBox" id="filter-34">
            <feOffset dx="0" dy="0" in="SourceAlpha" result="shadowOffsetOuter1"></feOffset>
            <feGaussianBlur stdDeviation="2.5" in="shadowOffsetOuter1" result="shadowBlurOuter1"></feGaussianBlur>
            <feColorMatrix values="0 0 0 0 0   0 0 0 0 0.666666667   0 0 0 0 1  0 0 0 1 0" type="matrix" in="shadowBlurOuter1" result="shadowMatrixOuter1"></feColorMatrix>
            <feOffset dx="0" dy="0" in="SourceAlpha" result="shadowOffsetOuter2"></feOffset>
            <feGaussianBlur stdDeviation="2.5" in="shadowOffsetOuter2" result="shadowBlurOuter2"></feGaussianBlur>
            <feColorMatrix values="0 0 0 0 0   0 0 0 0 0.666666667   0 0 0 0 1  0 0 0 1 0" type="matrix" in="shadowBlurOuter2" result="shadowMatrixOuter2"></feColorMatrix>
            <feOffset dx="0" dy="0" in="SourceAlpha" result="shadowOffsetOuter3"></feOffset>
            <feGaussianBlur stdDeviation="2.5" in="shadowOffsetOuter3" result="shadowBlurOuter3"></feGaussianBlur>
            <feColorMatrix values="0 0 0 0 0   0 0 0 0 0.666666667   0 0 0 0 1  0 0 0 1 0" type="matrix" in="shadowBlurOuter3" result="shadowMatrixOuter3"></feColorMatrix>
            <feMerge>
                <feMergeNode in="shadowMatrixOuter1"></feMergeNode>
                <feMergeNode in="shadowMatrixOuter2"></feMergeNode>
                <feMergeNode in="shadowMatrixOuter3"></feMergeNode>
            </feMerge>
        </filter>
    </defs>
    <g id="页面-1" stroke="none" stroke-width="1" fill="none" fill-rule="evenodd">
        <g id="预览效果图" transform="translate(-61.000000, -601.000000)">
            <g id="标题背景" transform="translate(60.000000, 601.722500)">
                <path d="M445.036301,0 L437.290767,18.6892233 C436.080362,21.6098125 433.241968,23.5122487 430.094916,23.5122487 L419.969846,23.5122487 L420.090685,23.3743359 L416.192933,22.3868636 L266.033388,22.3868636 L262.135636,23.3872081 L262.245514,23.5122487 L251.351854,23.5122487 C248.204802,23.5122487 245.366408,21.6098125 244.156004,18.6892233 L236.41047,0" id="Combined-Shape" stroke="url(#linearGradient-1)"></path>
                <path d="M445.036301,0 L440.407245,11.1694646 C437.310725,18.6410667 430.018971,23.5122487 421.931124,23.5122487 L419.88847,23.512 L420.090685,23.3743359 L416.192933,22.3868636 L266.033388,22.3868636 L262.135636,23.3872081 L262.31947,23.512 L259.515647,23.5122487 C251.4278,23.5122487 244.136046,18.6410667 241.039526,11.1694646 L236.41047,0 L445.036301,0 Z" id="Combined-Shape" fill="url(#linearGradient-2)"></path>
                <path d="M445.036301,0 L440.407245,11.1694646 C437.310725,18.6410667 430.018971,23.5122487 421.931124,23.5122487 L419.88847,23.512 L420.090685,23.3743359 L416.192933,22.3868636 L266.033388,22.3868636 L262.135636,23.3872081 L262.31947,23.512 L259.515647,23.5122487 C251.4278,23.5122487 244.136046,18.6410667 241.039526,11.1694646 L236.41047,0 L445.036301,0 Z" id="Combined-Shape备份" fill="url(#linearGradient-2)"></path>
                <path d="M446.972604,23.3739413 L445.174608,24.8953221 C444.206457,25.8634735 443.056586,26.0017809 441.978244,26.0017809 L435.215372,26.0017809 C432.069436,26.0017809 429.232049,24.0982449 428.022073,21.1759674 L420.279286,2.47594025 L421.662359,4.54747351e-13 L436.126554,4.54747351e-13 L446.972604,23.3739413 Z" id="Combined-Shape-Copy-2" stroke="url(#linearGradient-4)" fill="url(#linearGradient-3)" transform="translate(433.625945, 13.000890) scale(-1, 1) translate(-433.625945, -13.000890) "></path>
                <path d="M262.135636,23.5122487 L260.199333,24.8953221 C259.231182,25.5868588 257.804696,26.0017809 256.726355,26.0017809 L249.963483,26.0017809 C246.817547,26.0017809 243.980159,24.0982449 242.770184,21.1759674 L235.027396,2.47594025 L236.41047,0 L250.874664,0 L262.135636,23.5122487 Z" id="Combined-Shape-Copy-2备份" stroke="url(#linearGradient-6)" fill="url(#linearGradient-5)"></path>
                <polyline id="Rectangle-3" stroke-opacity="0.6" stroke="#5FC6FF" stroke-linecap="round" points="420.194191 23.4297738 416.293923 26.0017809 266.089115 26.0017809 262.188848 23.4425804"></polyline>
                <g id="Group" transform="translate(240.283076, 2.212918)" fill="#5FC6FF">
                    <path d="M0.781737168,0 L3.16990126,0 C3.60164278,5.36427595e-16 3.95163843,0.349995652 3.95163843,0.781737168 C3.95163843,1.21347868 3.60164278,1.56347434 3.16990126,1.56347434 L0.781737168,1.56347434 C0.349995652,1.56347434 5.28730866e-17,1.21347868 0,0.781737168 C-5.28730866e-17,0.349995652 0.349995652,1.90331932e-16 0.781737168,0 Z" id="Rectangle-4" opacity="0.1"></path>
                    <path d="M1.9672287,2.73608009 L4.35539279,2.73608009 C4.78713431,2.73608009 5.13712996,3.08607574 5.13712996,3.51781725 C5.13712996,3.94955877 4.78713431,4.29955442 4.35539279,4.29955442 L1.9672287,4.29955442 C1.53548718,4.29955442 1.18549153,3.94955877 1.18549153,3.51781725 C1.18549153,3.08607574 1.53548718,2.73608009 1.9672287,2.73608009 Z" id="Rectangle-4-Copy" opacity="0.2"></path>
                    <path d="M3.15272023,5.47216017 L5.54088432,5.47216017 C5.97262584,5.47216017 6.32262149,5.82215582 6.32262149,6.25389734 C6.32262149,6.68563886 5.97262584,7.03563451 5.54088432,7.03563451 L3.15272023,7.03563451 C2.72097871,7.03563451 2.37098306,6.68563886 2.37098306,6.25389734 C2.37098306,5.82215582 2.72097871,5.47216017 3.15272023,5.47216017 Z" id="Rectangle-4-Copy-2" opacity="0.3"></path>
                    <path d="M4.33821175,8.20824026 L6.72637585,8.20824026 C7.15811736,8.20824026 7.50811302,8.55823591 7.50811302,8.98997743 C7.50811302,9.42171894 7.15811736,9.7717146 6.72637585,9.7717146 L4.33821175,9.7717146 C3.90647024,9.7717146 3.55647459,9.42171894 3.55647459,8.98997743 C3.55647459,8.55823591 3.90647024,8.20824026 4.33821175,8.20824026 Z" id="Rectangle-4-Copy-3" opacity="0.4"></path>
                    <path d="M5.52370328,10.9443203 L7.91186738,10.9443203 C8.34360889,10.9443203 8.69360455,11.294316 8.69360455,11.7260575 C8.69360455,12.157799 8.34360889,12.5077947 7.91186738,12.5077947 L5.52370328,12.5077947 C5.09196177,12.5077947 4.74196612,12.157799 4.74196612,11.7260575 C4.74196612,11.294316 5.09196177,10.9443203 5.52370328,10.9443203 Z" id="Rectangle-4-Copy-4" opacity="0.5"></path>
                    <path d="M6.70919481,13.6804004 L9.09735891,13.6804004 C9.52910042,13.6804004 9.87909607,14.0303961 9.87909607,14.4621376 C9.87909607,14.8938791 9.52910042,15.2438748 9.09735891,15.2438748 L6.70919481,15.2438748 C6.2774533,15.2438748 5.92745764,14.8938791 5.92745764,14.4621376 C5.92745764,14.0303961 6.2774533,13.6804004 6.70919481,13.6804004 Z" id="Rectangle-4-Copy-5" opacity="0.6"></path>
                    <path d="M7.89468634,16.4164805 L10.2828504,16.4164805 C10.714592,16.4164805 11.0645876,16.7664762 11.0645876,17.1982177 C11.0645876,17.6299592 10.714592,17.9799549 10.2828504,17.9799549 L7.89468634,17.9799549 C7.46294483,17.9799549 7.11294917,17.6299592 7.11294917,17.1982177 C7.11294917,16.7664762 7.46294483,16.4164805 7.89468634,16.4164805 Z" id="Rectangle-4-Copy-6" opacity="0.7"></path>
                </g>
                <g id="Group-Copy" transform="translate(435.440310, 11.212918) scale(-1, 1) translate(-435.440310, -11.212918) translate(429.440310, 2.212918)" fill="#5FC6FF">
                    <path d="M0.781737168,0 L3.16990126,0 C3.60164278,6.47449897e-16 3.95163843,0.349995652 3.95163843,0.781737168 C3.95163843,1.21347868 3.60164278,1.56347434 3.16990126,1.56347434 L0.781737168,1.56347434 C0.349995652,1.56347434 5.28730866e-17,1.21347868 0,0.781737168 C1.38858662e-16,0.349995652 0.349995652,7.93096299e-17 0.781737168,0 Z" id="Rectangle-4" opacity="0.1"></path>
                    <path d="M1.9672287,2.73608009 L4.35539279,2.73608009 C4.78713431,2.73608009 5.13712996,3.08607574 5.13712996,3.51781725 C5.13712996,3.94955877 4.78713431,4.29955442 4.35539279,4.29955442 L1.9672287,4.29955442 C1.53548718,4.29955442 1.18549153,3.94955877 1.18549153,3.51781725 C1.18549153,3.08607574 1.53548718,2.73608009 1.9672287,2.73608009 Z" id="Rectangle-4-Copy" opacity="0.2"></path>
                    <path d="M3.15272023,5.47216017 L5.54088432,5.47216017 C5.97262584,5.47216017 6.32262149,5.82215582 6.32262149,6.25389734 C6.32262149,6.68563886 5.97262584,7.03563451 5.54088432,7.03563451 L3.15272023,7.03563451 C2.72097871,7.03563451 2.37098306,6.68563886 2.37098306,6.25389734 C2.37098306,5.82215582 2.72097871,5.47216017 3.15272023,5.47216017 Z" id="Rectangle-4-Copy-2" opacity="0.3"></path>
                    <path d="M4.33821175,8.20824026 L6.72637585,8.20824026 C7.15811736,8.20824026 7.50811302,8.55823591 7.50811302,8.98997743 C7.50811302,9.42171894 7.15811736,9.7717146 6.72637585,9.7717146 L4.33821175,9.7717146 C3.90647024,9.7717146 3.55647459,9.42171894 3.55647459,8.98997743 C3.55647459,8.55823591 3.90647024,8.20824026 4.33821175,8.20824026 Z" id="Rectangle-4-Copy-3" opacity="0.4"></path>
                    <path d="M5.52370328,10.9443203 L7.91186738,10.9443203 C8.34360889,10.9443203 8.69360455,11.294316 8.69360455,11.7260575 C8.69360455,12.157799 8.34360889,12.5077947 7.91186738,12.5077947 L5.52370328,12.5077947 C5.09196177,12.5077947 4.74196612,12.157799 4.74196612,11.7260575 C4.74196612,11.294316 5.09196177,10.9443203 5.52370328,10.9443203 Z" id="Rectangle-4-Copy-4" opacity="0.5"></path>
                    <path d="M6.70919481,13.6804004 L9.09735891,13.6804004 C9.52910042,13.6804004 9.87909607,14.0303961 9.87909607,14.4621376 C9.87909607,14.8938791 9.52910042,15.2438748 9.09735891,15.2438748 L6.70919481,15.2438748 C6.2774533,15.2438748 5.92745764,14.8938791 5.92745764,14.4621376 C5.92745764,14.0303961 6.2774533,13.6804004 6.70919481,13.6804004 Z" id="Rectangle-4-Copy-5" opacity="0.6"></path>
                    <path d="M7.89468634,16.4164805 L10.2828504,16.4164805 C10.714592,16.4164805 11.0645876,16.7664762 11.0645876,17.1982177 C11.0645876,17.6299592 10.714592,17.9799549 10.2828504,17.9799549 L7.89468634,17.9799549 C7.46294483,17.9799549 7.11294917,17.6299592 7.11294917,17.1982177 C7.11294917,16.7664762 7.46294483,16.4164805 7.89468634,16.4164805 Z" id="Rectangle-4-Copy-6" opacity="0.7"></path>
                </g>
                <g id="编组-9" transform="translate(447.525833, 2.489532)">
                    <g id="Group-2-Copy" transform="translate(127.295314, 2.553229) scale(-1, 1) translate(-127.295314, -2.553229) translate(21.295314, 0.553229)">
                        <polygon id="Rectangle" fill-opacity="0.3" fill="#00AAFF" points="2.7661469 2.94819838e-15 11.0645876 2.94819838e-15 11.0645876 1.38307345 14.3839639 1.38307345 14.3839639 2.7661469 9.82732793e-15 2.7661469"></polygon>
                        <polygon id="Rectangle" fill-opacity="0.15" fill="#00AAFF" points="15.4904226 1.38307345 211.442753 1.38307345 210.612909 2.21291752 15.4904226 2.21291752"></polygon>
                        <polygon id="Rectangle-Copy-2" fill-opacity="0.15" fill="#00AAFF" points="15.4904226 2.48953221 210.889524 2.48953221 211.166139 2.7661469 15.4904226 2.7661469"></polygon>
                        <g id="Rectangle">
                            <use fill="black" fill-opacity="1" filter="url(#filter-8)" xlink:href="#path-7"></use>
                            <use fill="#00AAFF" fill-rule="evenodd" xlink:href="#path-7"></use>
                        </g>
                        <g id="Rectangle-Copy">
                            <use fill="black" fill-opacity="1" filter="url(#filter-10)" xlink:href="#path-9"></use>
                            <use fill="#00AAFF" fill-rule="evenodd" xlink:href="#path-9"></use>
                        </g>
                        <g id="Rectangle-Copy-3">
                            <use fill="black" fill-opacity="1" filter="url(#filter-12)" xlink:href="#path-11"></use>
                            <use fill="#00AAFF" fill-rule="evenodd" xlink:href="#path-11"></use>
                        </g>
                    </g>
                    <g id="Rectangle">
                        <use fill="url(#linearGradient-13)" fill-rule="evenodd" xlink:href="#path-15"></use>
                        <use fill="black" fill-opacity="1" filter="url(#filter-16)" xlink:href="#path-15"></use>
                        <path stroke="url(#linearGradient-14)" stroke-width="1" d="M18.6026921,0.5 L20.868839,2.7661469 L18.6026921,5.0322938 L0.755782845,5.0322938 L2.68200771,0.5 L18.6026921,0.5 Z" stroke-linejoin="square"></path>
                    </g>
                    <g id="Rectangle" opacity="0.5">
                        <use fill="url(#linearGradient-17)" fill-rule="evenodd" xlink:href="#path-19"></use>
                        <use fill="black" fill-opacity="1" filter="url(#filter-20)" xlink:href="#path-19"></use>
                        <path stroke="url(#linearGradient-18)" stroke-width="1" d="M18.6026921,0.5 L20.868839,2.7661469 L18.6026921,5.0322938 L0.755782845,5.0322938 L2.68200771,0.5 L18.6026921,0.5 Z" stroke-linejoin="square"></path>
                    </g>
                    <g id="Rectangle">
                        <use fill="black" fill-opacity="1" filter="url(#filter-22)" xlink:href="#path-21"></use>
                        <use fill="#A4E1FF" fill-rule="evenodd" xlink:href="#path-21"></use>
                    </g>
                    <polygon id="Rectangle-Copy-5" fill-opacity="0.302447552" fill="#00AAFF" points="2.21291752 8.2984407 3.31937628 8.2984407 3.31937628 9.40489946 2.21291752 9.40489946"></polygon>
                    <rect id="Rectangle-Copy-6" fill-opacity="0.302447552" fill="#00AAFF" x="85.5830693" y="8.2984407" width="1.10645876" height="1.10645876"></rect>
                    <polygon id="Rectangle-Copy-7" fill-opacity="0.15" fill="#00AAFF" points="3.31937628 8.57505539 85.5830693 8.57505539 85.5830693 9.12828477 3.31937628 9.12828477"></polygon>
                </g>
                <g id="编组-9备份-9" transform="translate(117.474167, 7.489532) scale(-1, 1) translate(-117.474167, -7.489532) translate(0.474167, 2.489532)">
                    <g id="Group-2-Copy" transform="translate(127.295314, 2.553229) scale(-1, 1) translate(-127.295314, -2.553229) translate(21.295314, 0.553229)">
                        <polygon id="Rectangle" fill-opacity="0.3" fill="#00AAFF" points="2.7661469 2.94819838e-15 11.0645876 2.94819838e-15 11.0645876 1.38307345 14.3839639 1.38307345 14.3839639 2.7661469 9.82732793e-15 2.7661469"></polygon>
                        <polygon id="Rectangle" fill-opacity="0.15" fill="#00AAFF" points="15.4904226 1.38307345 211.442753 1.38307345 210.612909 2.21291752 15.4904226 2.21291752"></polygon>
                        <polygon id="Rectangle-Copy-2" fill-opacity="0.15" fill="#00AAFF" points="15.4904226 2.48953221 210.889524 2.48953221 211.166139 2.7661469 15.4904226 2.7661469"></polygon>
                        <g id="Rectangle">
                            <use fill="black" fill-opacity="1" filter="url(#filter-24)" xlink:href="#path-23"></use>
                            <use fill="#00AAFF" fill-rule="evenodd" xlink:href="#path-23"></use>
                        </g>
                        <g id="Rectangle-Copy">
                            <use fill="black" fill-opacity="1" filter="url(#filter-26)" xlink:href="#path-25"></use>
                            <use fill="#00AAFF" fill-rule="evenodd" xlink:href="#path-25"></use>
                        </g>
                        <g id="Rectangle-Copy-3">
                            <use fill="black" fill-opacity="1" filter="url(#filter-28)" xlink:href="#path-27"></use>
                            <use fill="#00AAFF" fill-rule="evenodd" xlink:href="#path-27"></use>
                        </g>
                    </g>
                    <g id="Rectangle">
                        <use fill="url(#linearGradient-13)" fill-rule="evenodd" xlink:href="#path-29"></use>
                        <use fill="black" fill-opacity="1" filter="url(#filter-30)" xlink:href="#path-29"></use>
                        <path stroke="url(#linearGradient-14)" stroke-width="1" d="M18.6026921,0.5 L20.868839,2.7661469 L18.6026921,5.0322938 L0.755782845,5.0322938 L2.68200771,0.5 L18.6026921,0.5 Z" stroke-linejoin="square"></path>
                    </g>
                    <g id="Rectangle" opacity="0.5">
                        <use fill="url(#linearGradient-17)" fill-rule="evenodd" xlink:href="#path-31"></use>
                        <use fill="black" fill-opacity="1" filter="url(#filter-32)" xlink:href="#path-31"></use>
                        <path stroke="url(#linearGradient-18)" stroke-width="1" d="M18.6026921,0.5 L20.868839,2.7661469 L18.6026921,5.0322938 L0.755782845,5.0322938 L2.68200771,0.5 L18.6026921,0.5 Z" stroke-linejoin="square"></path>
                    </g>
                    <g id="Rectangle">
                        <use fill="black" fill-opacity="1" filter="url(#filter-34)" xlink:href="#path-33"></use>
                        <use fill="#A4E1FF" fill-rule="evenodd" xlink:href="#path-33"></use>
                    </g>
                    <polygon id="Rectangle-Copy-5" fill-opacity="0.302447552" fill="#00AAFF" points="2.21291752 8.2984407 3.31937628 8.2984407 3.31937628 9.40489946 2.21291752 9.40489946"></polygon>
                    <rect id="Rectangle-Copy-6" fill-opacity="0.302447552" fill="#00AAFF" x="85.5830693" y="8.2984407" width="1.10645876" height="1.10645876"></rect>
                    <polygon id="Rectangle-Copy-7" fill-opacity="0.15" fill="#00AAFF" points="3.31937628 8.57505539 85.5830693 8.57505539 85.5830693 9.12828477 3.31937628 9.12828477"></polygon>
                </g>
            </g>
        </g>
    </g>
</svg>